<?xml version="1.0" encoding="UTF-8"?>
<!DOCTYPE svg PUBLIC "-//W3C//DTD SVG 1.1//EN" "http://www.w3.org/Graphics/SVG/1.1/DTD/svg11.dtd">
<!-- Creator: CorelDRAW 2018 (64 Bit) -->
<svg xmlns="http://www.w3.org/2000/svg" xml:space="preserve" width="80.9mm" height="87.9mm" version="1.1" style="shape-rendering:geometricPrecision; text-rendering:geometricPrecision; image-rendering:optimizeQuality; fill-rule:evenodd; clip-rule:evenodd"
viewBox="0 0 8090 8790"
 xmlns:xlink="http://www.w3.org/1999/xlink">
 <defs>
  <style type="text/css">
   <![CDATA[
    .fil7 {fill:#FEFEFE;fill-rule:nonzero}
    .fil13 {fill:#FBD8D8;fill-rule:nonzero}
    .fil8 {fill:#FDD6BA;fill-rule:nonzero}
    .fil0 {fill:#F7A39C;fill-rule:nonzero}
    .fil23 {fill:#F89F6A;fill-rule:nonzero}
    .fil17 {fill:#F69981;fill-rule:nonzero}
    .fil12 {fill:#F2726A;fill-rule:nonzero}
    .fil19 {fill:#F1645F;fill-rule:nonzero}
    .fil22 {fill:#EE8E5B;fill-rule:nonzero}
    .fil1 {fill:#DE8981;fill-rule:nonzero}
    .fil15 {fill:#D9635B;fill-rule:nonzero}
    .fil18 {fill:#D6826E;fill-rule:nonzero}
    .fil4 {fill:#D8B49F;fill-rule:nonzero}
    .fil16 {fill:#BCA1A4;fill-rule:nonzero}
    .fil21 {fill:#AE6C5D;fill-rule:nonzero}
    .fil10 {fill:#A65D5B;fill-rule:nonzero}
    .fil11 {fill:#844A48;fill-rule:nonzero}
    .fil14 {fill:#7F4D4E;fill-rule:nonzero}
    .fil20 {fill:#937482;fill-rule:nonzero}
    .fil6 {fill:#91C3D6;fill-rule:nonzero}
    .fil5 {fill:#7C636E;fill-rule:nonzero}
    .fil2 {fill:#5D97BC;fill-rule:nonzero}
    .fil3 {fill:#3E3743;fill-rule:nonzero}
    .fil9 {fill:#35313A;fill-rule:nonzero}
   ]]>
  </style>
 </defs>
 <g id="Capa_x0020_1">
  <metadata id="CorelCorpID_0Corel-Layer"/>
  <path class="fil0" d="M18450.53 25664.19c-373.05,-203.46 -271.32,-1187.14 -271.32,-1187.14l-558.72 36.02 0 -35.89 -59.77 17.94 -59.77 -17.94 0 35.89 -558.72 -36.02c0,0 101.74,983.68 -271.33,1187.14 -373.05,203.49 -2577.51,305.24 -2340.09,2577.52l6459.83 0c237.42,-2272.28 -1967.04,-2374.03 -2340.11,-2577.52z"/>
  <path class="fil1" d="M16863.9 25410.46c446.25,-66.51 892.24,-135.16 1337.92,-205.89 -62.68,-339.15 -22.61,-727.52 -22.61,-727.52l-558.72 36.02 0 -35.89 -59.77 17.94 -59.77 -17.94 0 35.89 -558.72 -36.02c0,0 58.9,571.56 -78.33,933.41z"/>
  <path class="fil2" d="M18688.4 25706.05c-261.13,268.4 -669.33,441.33 -1128.48,441.33 -459.12,0 -867.37,-172.93 -1128.49,-441.33 -681.65,189.8 -2357.57,524.41 -2147.46,2535.66l6551.88 0c210.15,-2011.25 -1465.81,-2345.86 -2147.45,-2535.66z"/>
  <path class="fil3" d="M19617.63 26011.21l87.73 131.56c4.58,-7.61 9.15,-15.23 13.73,-22.83 -109.83,23.14 -219.65,46.26 -329.48,69.35 7.43,5.64 14.82,11.23 22.26,16.81l111.77 -235.91c-11.05,-4.61 -22.08,-9.16 -33.09,-13.64l-115.68 244.19c-6.77,14.32 12.5,18.86 22.31,16.79 109.83,-23.12 219.64,-46.23 329.47,-69.34 9.55,-2 20.37,-12.94 13.77,-22.84l-54.8 -82.19c-22.66,-10.98 -45.32,-21.64 -67.99,-31.95z"/>
  <path class="fil3" d="M18888.17 25881.86c57.78,86.68 115.58,173.42 173.37,260.12 4.92,-6.35 9.85,-12.68 14.79,-19 -109.83,23.13 -219.66,46.22 -329.48,69.36 7.03,4.09 14.02,8.18 21.07,12.21 52.02,-109.82 104.01,-219.64 156.04,-329.48 8.63,-18.19 -30.03,-15.26 -36.14,-2.28 -52.04,109.84 -104.07,219.66 -156.11,329.48 -6.37,13.47 12.94,13.94 21.07,12.23 109.83,-23.09 219.65,-46.24 329.48,-69.37 7.61,-1.57 20.9,-9.8 14.78,-19 -57.79,-86.68 -115.59,-173.42 -173.43,-260.11 -8.18,-12.26 -45.26,1.15 -35.44,15.84z"/>
  <path class="fil3" d="M18309.02 25978.11l108.8 163.16c5.18,-5.24 10.42,-10.42 15.66,-15.66 -109.83,23.09 -219.66,46.23 -329.48,69.36 7.13,1.88 14.25,3.82 21.38,5.72l84.27 -177.89c-14.47,5.91 -29.07,11.64 -43.82,17.16l-78.73 166.19c-4.52,9.54 18.7,6.32 21.42,5.76 109.83,-23.15 219.65,-46.28 329.48,-69.37 5.85,-1.23 21.07,-7.55 15.66,-15.7l-110.69 -166c-11.2,5.88 -22.53,11.63 -33.95,17.27z"/>
  <path class="fil3" d="M17770.2 26135.11l2.73 4.09 8.98 -5.54c10,-1.24 19.95,-2.55 29.87,-3.96 2.36,6.59 -20.21,12.5 -22.74,13.02 -109.88,23.14 -219.7,46.26 -329.53,69.35 -2.59,0.59 -19.3,1.5 -15.92,-5.72l28.95 -61.08c11.53,0.55 23.1,0.99 34.71,1.32l-25.52 53.88c-5.28,-1.9 -10.6,-3.82 -15.92,-5.71l262.28 -55.21c14.1,-1.32 28.14,-2.79 42.11,-4.44z"/>
  <path class="fil3" d="M17092.75 26084.97l38.17 57.21c4.85,-6.68 9.68,-13.32 14.52,-19.99 -109.87,23.12 -219.7,46.26 -329.52,69.39 7.12,4.45 14.26,8.94 21.37,13.36l84.13 -177.57c-10.63,-4.26 -21.19,-8.62 -31.68,-13.08l-88.81 187.58c-6.52,13.78 12.84,15.23 21.37,13.42 109.82,-23.13 219.65,-46.27 329.48,-69.36 8.12,-1.72 20.79,-10.55 14.51,-20.02l-17.69 -26.53c-18.78,-4.5 -37.41,-9.31 -55.85,-14.41z"/>
  <path class="fil3" d="M16312.41 25879.08c57.79,86.7 115.59,173.45 173.42,260.12 7.47,-4.4 15,-8.84 22.47,-13.29 -109.83,23.15 -219.64,46.24 -329.47,69.37 5.23,1.68 10.51,3.38 15.75,5.06 52.03,-109.84 104.05,-219.65 156.04,-329.53 3.69,-7.73 -33.07,-4.26 -38.03,6.21 -52.04,109.81 -104.07,219.69 -156.06,329.53 -3.3,6.91 13.33,5.52 15.7,5 109.82,-23.09 219.7,-46.22 329.53,-69.37 2.45,-0.51 26.78,-6.8 22.46,-13.28 -57.79,-86.67 -115.58,-173.42 -173.37,-260.11 -6.96,-10.41 -42.49,4.23 -38.44,10.29z"/>
  <path class="fil3" d="M15701.28 25928.24l142.4 213.64c4.98,-6.18 9.94,-12.36 14.91,-18.51 -109.82,23.12 -219.65,46.21 -329.48,69.37 6.96,3.86 13.95,7.78 20.9,11.64l126.27 -266.53c-15.17,5.92 -30.38,11.97 -45.62,18.14l-116.72 246.49c-6.33,13.3 13.02,13.3 20.9,11.62 109.82,-23.09 219.65,-46.22 329.47,-69.35 7.39,-1.55 20.98,-9.48 14.9,-18.48l-141.23 -211.88c-12.19,4.51 -24.43,9.16 -36.7,13.85z"/>
  <path class="fil3" d="M19908.38 26437.71c57.8,86.74 115.64,173.42 173.43,260.15 4.57,-7.6 9.15,-15.25 13.73,-22.87 -109.83,23.14 -219.66,46.27 -329.48,69.41 7.43,5.58 14.87,11.17 22.3,16.76 51.99,-109.82 104.02,-219.65 156.04,-329.47 9.73,-20.5 -29.16,-21.86 -36.99,-5.38 -52.02,109.83 -104.05,219.67 -156.09,329.52 -6.77,14.31 12.49,18.83 22.3,16.77 109.83,-23.09 219.66,-46.23 329.48,-69.36 9.54,-1.98 20.36,-12.89 13.77,-22.84 -57.8,-86.68 -115.64,-173.42 -173.43,-260.11 -10.33,-15.51 -46.71,-0.08 -35.06,17.42z"/>
  <path class="fil3" d="M19264.61 26436.92c57.8,86.73 115.59,173.43 173.42,260.11 4.93,-6.33 9.85,-12.67 14.78,-19 -109.87,23.13 -219.69,46.27 -329.52,69.36 7.05,4.09 14.04,8.18 21.07,12.27 52.03,-109.86 104.07,-219.69 156.1,-329.51 8.62,-18.21 -30.09,-15.22 -36.2,-2.28 -52.04,109.82 -104.06,219.63 -156.09,329.47 -6.38,13.49 12.96,13.94 21.07,12.22 109.81,-23.09 219.69,-46.22 329.52,-69.36 7.6,-1.58 20.88,-9.81 14.72,-19 -57.79,-86.7 -115.59,-173.37 -173.37,-260.12 -8.18,-12.22 -45.31,1.15 -35.5,15.84z"/>
  <path class="fil3" d="M18620.84 26436.21c57.83,86.74 115.62,173.43 173.42,260.15 5.24,-5.21 10.42,-10.46 15.66,-15.7 -109.83,23.14 -219.65,46.23 -329.48,69.39 7.13,1.92 14.25,3.8 21.38,5.74 52.03,-109.81 104.06,-219.65 156.1,-329.53 4.7,-9.92 -32.86,-6 -38.27,5.47 -52.04,109.82 -104.06,219.64 -156.09,329.48 -4.49,9.53 18.69,6.32 21.42,5.76 109.81,-23.13 219.64,-46.22 329.47,-69.36 5.89,-1.25 21.12,-7.57 15.66,-15.71 -57.79,-86.7 -115.59,-173.37 -173.43,-260.11 -6.33,-9.59 -43.67,2.64 -35.84,14.42z"/>
  <path class="fil3" d="M17976 26434.16c57.8,86.72 115.59,173.42 173.39,260.14 7.47,-4.62 14.95,-9.23 22.38,-13.85 -109.83,23.13 -219.64,46.28 -329.47,69.37 5.28,1.92 10.6,3.83 15.92,5.72 51.99,-109.83 104.02,-219.66 156.05,-329.47 4.09,-8.68 -32.98,-4.94 -38.13,5.88 -52.04,109.83 -104.07,219.69 -156.05,329.52 -3.43,7.15 13.29,6.24 15.88,5.72 109.86,-23.15 219.69,-46.27 329.52,-69.37 2.68,-0.56 26.95,-6.89 22.34,-13.84 -57.8,-86.7 -115.59,-173.38 -173.39,-260.12 -7.25,-10.87 -42.96,3.5 -38.44,10.3z"/>
  <path class="fil3" d="M17333.95 26437.15c57.79,86.67 115.62,173.42 173.42,260.11 4.84,-6.65 9.68,-13.33 14.52,-19.97 -109.83,23.09 -219.66,46.23 -329.48,69.35 7.08,4.45 14.21,8.93 21.33,13.42 52.04,-109.88 104.07,-219.69 156.09,-329.52 8.93,-18.86 -29.81,-16.93 -36.37,-3.07 -52.02,109.82 -104.06,219.64 -156.09,329.47 -6.51,13.77 12.84,15.21 21.37,13.4 109.83,-23.12 219.65,-46.21 329.48,-69.35 8.14,-1.71 20.81,-10.55 14.51,-19.96 -57.78,-86.74 -115.58,-173.43 -173.37,-260.11 -8.75,-13.12 -45.71,0.74 -35.41,16.23z"/>
  <path class="fil3" d="M16688.86 26434.16c57.78,86.72 115.62,173.42 173.42,260.14 7.48,-4.45 15,-8.87 22.52,-13.32 -109.83,23.14 -219.7,46.26 -329.52,69.35 5.27,1.72 10.51,3.41 15.74,5.07 52.03,-109.82 104.07,-219.66 156.1,-329.47 3.69,-7.78 -33.12,-4.27 -38.09,6.19 -52.03,109.83 -104.02,219.67 -156.06,329.48 -3.29,6.91 13.38,5.54 15.75,5.05 109.83,-23.12 219.65,-46.26 329.48,-69.35 2.46,-0.54 26.83,-6.86 22.52,-13.32 -57.84,-86.7 -115.63,-173.38 -173.43,-260.12 -6.94,-10.42 -42.49,4.21 -38.43,10.3z"/>
  <path class="fil3" d="M16046.75 26436.84c57.79,86.7 115.59,173.42 173.43,260.11 4.96,-6.16 9.9,-12.32 14.86,-18.52 -109.83,23.13 -219.66,46.27 -329.47,69.36 6.98,3.91 13.94,7.78 20.88,11.64 52.04,-109.81 104.07,-219.64 156.1,-329.46 8.45,-17.86 -30.17,-14.41 -36.06,-1.9 -52.04,109.84 -104.07,219.66 -156.11,329.48 -6.28,13.33 13.03,13.28 20.9,11.66 109.88,-23.14 219.69,-46.27 329.52,-69.41 7.34,-1.54 20.94,-9.41 14.91,-18.46 -57.84,-86.74 -115.63,-173.43 -173.43,-260.12 -7.91,-11.87 -45.08,1.32 -35.53,15.62z"/>
  <path class="fil3" d="M15403.07 26436.39c57.78,86.75 115.58,173.42 173.42,260.12 5.14,-5.5 10.29,-11 15.43,-16.49 -109.82,23.14 -219.65,46.26 -329.51,69.35 7.2,2.2 14.42,4.39 21.64,6.6 52.03,-109.83 104.05,-219.64 156.04,-329.52 5.19,-10.87 -32.67,-6.87 -38.35,5.11 -52.02,109.82 -104.01,219.64 -156.05,329.48 -4.75,9.98 18.61,7.2 21.59,6.6 109.88,-23.15 219.7,-46.29 329.53,-69.38 6.29,-1.31 21.06,-8.09 15.44,-16.54 -57.8,-86.68 -115.64,-173.38 -173.43,-260.11 -6.82,-10.21 -44.16,2.2 -35.75,14.78z"/>
  <path class="fil3" d="M14795.21 26490.45l137.89 206.85c4.84,-6.74 9.64,-13.46 14.48,-20.19 -109.83,23.14 -219.69,46.23 -329.52,69.36 7.17,4.56 14.29,9.1 21.46,13.64l99.14 -209.29c-30.66,34.27 -60.32,69.98 -88.78,107.25l-46.82 98.82c-6.51,13.77 12.81,15.44 21.47,13.65 109.81,-23.15 219.64,-46.29 329.47,-69.38 8.23,-1.76 20.76,-10.72 14.47,-20.18l-145.53 -218.29c-9.31,9.13 -18.57,18.39 -27.73,27.76z"/>
  <path class="fil3" d="M20521.64 26729.62l-104.59 22.04c5.1,1.09 10.2,2.24 15.31,3.37l42.69 -90.12c-7.07,-9.37 -14.23,-18.61 -21.45,-27.77l-59.12 124.81c-2.9,6.11 13.42,3.78 15.31,3.38l119.2 -25.07c-2.41,-3.58 -4.91,-7.08 -7.35,-10.64z"/>
  <path class="fil3" d="M19531.94 26992.83c57.79,86.68 115.59,173.36 173.42,260.11 4.58,-7.61 9.15,-15.23 13.73,-22.83 -109.83,23.09 -219.65,46.23 -329.48,69.36 7.43,5.58 14.82,11.17 22.26,16.8 52.02,-109.82 104.06,-219.69 156.09,-329.53 9.72,-20.48 -29.2,-21.85 -37.03,-5.36 -51.99,109.87 -104.02,219.69 -156.06,329.52 -6.77,14.34 12.5,18.87 22.31,16.81 109.83,-23.14 219.64,-46.27 329.47,-69.36 9.55,-2.02 20.37,-12.94 13.77,-22.83 -57.85,-86.74 -115.63,-173.42 -173.43,-260.16 -10.38,-15.52 -46.76,-0.1 -35.05,17.47z"/>
  <path class="fil3" d="M18888.17 26991.98c57.78,86.72 115.58,173.42 173.37,260.17 4.92,-6.34 9.85,-12.68 14.79,-19.01 -109.83,23.09 -219.66,46.22 -329.48,69.37 7.03,4.09 14.02,8.13 21.07,12.2 52.02,-109.81 104.01,-219.62 156.04,-329.46 8.63,-18.21 -30.03,-15.26 -36.14,-2.32 -52.04,109.86 -104.07,219.69 -156.11,329.5 -6.37,13.47 12.94,13.95 21.07,12.23 109.83,-23.14 219.65,-46.26 329.48,-69.35 7.61,-1.64 20.9,-9.82 14.78,-19 -57.79,-86.73 -115.59,-173.43 -173.43,-260.11 -8.18,-12.27 -45.26,1.09 -35.44,15.78z"/>
  <path class="fil3" d="M18244.39 26991.33c57.79,86.69 115.63,173.36 173.43,260.11 5.18,-5.24 10.42,-10.47 15.66,-15.7 -109.83,23.12 -219.66,46.27 -329.48,69.36 7.13,1.92 14.25,3.83 21.38,5.75 52.02,-109.82 104.05,-219.65 156.09,-329.47 4.7,-9.98 -32.86,-6.07 -38.27,5.41 -52.03,109.82 -104.06,219.66 -156.1,329.53 -4.52,9.5 18.7,6.29 21.42,5.7 109.83,-23.09 219.65,-46.22 329.48,-69.36 5.85,-1.22 21.07,-7.55 15.66,-15.66 -57.8,-86.72 -115.64,-173.41 -173.42,-260.14 -6.39,-9.55 -43.73,2.63 -35.85,14.47z"/>
  <path class="fil3" d="M17599.51 26989.25c57.84,86.69 115.64,173.38 173.42,260.11 7.48,-4.6 14.91,-9.23 22.39,-13.81 -109.82,23.08 -219.65,46.24 -329.51,69.38 5.32,1.88 10.64,3.77 15.92,5.71 52.03,-109.83 104.07,-219.71 156.09,-329.52 4.09,-8.63 -33.02,-4.92 -38.12,5.9 -52.04,109.86 -104.07,219.69 -156.11,329.5 -3.38,7.22 13.33,6.26 15.92,5.72 109.83,-23.12 219.65,-46.21 329.53,-69.35 2.63,-0.58 26.96,-6.91 22.34,-13.82 -57.8,-86.72 -115.58,-173.42 -173.42,-260.14 -7.26,-10.86 -42.98,3.51 -38.45,10.32z"/>
  <path class="fil3" d="M16957.49 26992.2c57.8,86.69 115.59,173.43 173.43,260.11 4.85,-6.64 9.68,-13.32 14.52,-19.96 -109.87,23.13 -219.7,46.22 -329.52,69.36 7.12,4.49 14.26,8.93 21.37,13.4 52.03,-109.81 104.07,-219.64 156.1,-329.46 8.92,-18.91 -29.86,-16.99 -36.42,-3.12 -52.03,109.86 -104.07,219.69 -156.04,329.52 -6.52,13.72 12.84,15.18 21.37,13.37 109.82,-23.09 219.65,-46.23 329.48,-69.38 8.12,-1.69 20.79,-10.55 14.51,-19.96 -57.8,-86.7 -115.64,-173.42 -173.43,-260.11 -8.71,-13.11 -45.65,0.75 -35.37,16.23z"/>
  <path class="fil3" d="M16312.41 26989.25c57.79,86.69 115.59,173.38 173.42,260.11 7.47,-4.43 15,-8.88 22.47,-13.28 -109.83,23.09 -219.64,46.23 -329.47,69.36 5.23,1.68 10.51,3.35 15.75,5.02 52.03,-109.82 104.05,-219.64 156.04,-329.48 3.69,-7.78 -33.07,-4.26 -38.03,6.21 -52.04,109.82 -104.07,219.65 -156.06,329.47 -3.3,6.96 13.33,5.55 15.7,5.07 109.82,-23.15 219.7,-46.24 329.53,-69.38 2.45,-0.51 26.78,-6.79 22.46,-13.28 -57.79,-86.72 -115.58,-173.42 -173.37,-260.14 -6.96,-10.44 -42.49,4.25 -38.44,10.32z"/>
  <path class="fil3" d="M15670.26 26991.89c57.83,86.7 115.62,173.43 173.42,260.11 4.98,-6.16 9.94,-12.3 14.91,-18.46 -109.82,23.09 -219.65,46.21 -329.48,69.35 6.96,3.88 13.95,7.75 20.9,11.62 52.03,-109.83 104.06,-219.65 156.09,-329.48 8.44,-17.86 -30.17,-14.42 -36.1,-1.88 -52.04,109.82 -104.02,219.64 -156.06,329.47 -6.33,13.31 13.02,13.31 20.9,11.66 109.82,-23.16 219.65,-46.27 329.47,-69.36 7.39,-1.56 20.98,-9.48 14.9,-18.53 -57.78,-86.7 -115.58,-173.42 -173.42,-260.12 -7.87,-11.81 -45.03,1.33 -35.53,15.62z"/>
  <path class="fil3" d="M15026.61 26991.44c57.8,86.75 115.59,173.45 173.38,260.18 5.15,-5.5 10.29,-11 15.44,-16.55 -109.83,23.14 -219.65,46.27 -329.47,69.36 7.21,2.19 14.43,4.4 21.63,6.59 51.99,-109.81 104.02,-219.64 156.06,-329.48 5.15,-10.88 -32.68,-6.84 -38.35,5.08 -52.04,109.81 -104.07,219.69 -156.06,329.52 -4.75,9.93 18.61,7.16 21.6,6.55 109.82,-23.14 219.65,-46.23 329.48,-69.35 6.33,-1.34 21.07,-8.1 15.43,-16.5 -57.79,-86.75 -115.58,-173.42 -173.37,-260.17 -6.82,-10.2 -44.16,2.26 -35.77,14.77z"/>
  <path class="fil3" d="M14423.2 27052.2l133.46 200.15c4.8,-6.72 9.63,-13.45 14.42,-20.18l-226.05 47.6c-2.42,8.82 -4.57,17.93 -6.89,26.85l239.41 -50.39c8.23,-1.71 20.76,-10.74 14.47,-20.17l-150.72 -226.09c-6.19,13.89 -12.19,28.01 -18.1,42.23z"/>
  <path class="fil3" d="M20173.82 26989.25c57.8,86.69 115.59,173.38 173.38,260.11 7.66,-4 15.27,-8.01 22.87,-12.01 -109.83,23.14 -219.65,46.23 -329.47,69.38 5.1,1.14 10.2,2.24 15.26,3.38 52.03,-109.84 104.06,-219.65 156.1,-329.48 2.63,-5.53 -33.3,-2.73 -37.88,6.92 -52.03,109.82 -104.05,219.63 -156.09,329.47 -2.91,6.1 13.46,3.78 15.31,3.42 109.82,-23.13 219.65,-46.27 329.51,-69.39 1.99,-0.42 26.35,-6.74 22.83,-11.98 -57.78,-86.72 -115.58,-173.42 -173.42,-260.14 -6.16,-9.29 -41.26,6.05 -38.4,10.32z"/>
  <path class="fil3" d="M19531.94 28102.94l92.5 138.77 46.66 0 -104.11 -156.19c-10.38,-15.52 -46.76,-0.09 -35.05,17.42zm-32.58 138.77l68.6 -144.78c9.72,-20.5 -29.2,-21.87 -37.03,-5.39l-71.1 150.17 39.53 0z"/>
  <path class="fil3" d="M18888.17 28102.15l93.02 139.56 46.04 0 -103.62 -155.41c-8.18,-12.26 -45.26,1.15 -35.44,15.85zm-33.52 139.56l69.31 -146.33c8.63,-18.21 -30.03,-15.26 -36.14,-2.29l-70.43 148.62 37.26 0z"/>
  <path class="fil3" d="M18244.39 28101.44l93.51 140.27 45.47 0 -103.13 -154.69c-6.39,-9.59 -43.73,2.64 -35.85,14.42zm-34.08 140.27l71.16 -150.19c4.7,-10 -32.86,-6.04 -38.27,5.44l-68.58 144.75 35.69 0z"/>
  <path class="fil3" d="M17599.51 28099.38l94.89 142.33 45.33 0 -101.77 -152.62c-7.26,-10.88 -42.98,3.47 -38.45,10.29zm-32.95 142.33l71.26 -150.42c4.09,-8.68 -33.02,-4.94 -38.12,5.89l-68.49 144.53 35.35 0z"/>
  <path class="fil3" d="M16957.49 28102.38l92.91 139.33 46.19 0 -103.73 -155.6c-8.71,-13.08 -45.65,0.78 -35.37,16.27zm-33.23 139.33l69.13 -145.94c8.92,-18.87 -29.86,-16.93 -36.42,-3.07l-70.6 149.01 37.89 0z"/>
  <path class="fil3" d="M16312.41 28099.38l94.87 142.33 45.29 0 -101.72 -152.62c-6.96,-10.43 -42.49,4.22 -38.44,10.29zm-33.08 142.33l71.29 -150.59c3.69,-7.75 -33.07,-4.28 -38.03,6.18l-68.4 144.41 35.14 0z"/>
  <path class="fil3" d="M15670.26 28102.06l93.13 139.65 45.94 0 -103.54 -155.31c-7.87,-11.83 -45.03,1.31 -35.53,15.66zm-33.56 139.65l69.4 -146.5c8.44,-17.87 -30.17,-14.44 -36.1,-1.95l-70.3 148.45 37 0z"/>
  <path class="fil3" d="M15026.61 28101.62l93.38 140.09 45.62 0 -103.23 -154.87c-6.82,-10.21 -44.16,2.2 -35.77,14.78zm-34.04 140.09l71.08 -150.03c5.15,-10.91 -32.68,-6.87 -38.35,5.11l-68.67 144.92 35.94 0z"/>
  <path class="fil3" d="M14383.23 28102.43l92.89 139.28 46.23 0 -103.76 -155.67c-8.84,-13.23 -45.78,0.71 -35.36,16.39zm-33.21 139.28l69.11 -145.85c9.01,-19.01 -29.79,-17.29 -36.42,-3.25l-70.65 149.1 37.96 0z"/>
  <path class="fil3" d="M20173.82 28099.38l94.85 142.33 45.32 0 -101.77 -152.62c-6.16,-9.28 -41.26,6.03 -38.4,10.29zm-33.36 142.33l71.5 -150.95c2.63,-5.5 -33.3,-2.73 -37.88,6.95l-68.22 144 34.6 0z"/>
  <path class="fil3" d="M19908.38 27547.88c57.8,86.69 115.64,173.43 173.43,260.11 4.57,-7.6 9.15,-15.22 13.73,-22.83 -109.83,23.14 -219.66,46.23 -329.48,69.36 7.43,5.59 14.87,11.22 22.3,16.81 51.99,-109.83 104.02,-219.64 156.04,-329.48 9.73,-20.5 -29.16,-21.91 -36.99,-5.36 -52.02,109.82 -104.05,219.66 -156.09,329.48 -6.77,14.32 12.49,18.86 22.3,16.8 109.83,-23.15 219.66,-46.24 329.48,-69.37 9.54,-2.02 20.36,-12.93 13.77,-22.83 -57.8,-86.72 -115.64,-173.42 -173.43,-260.14 -10.33,-15.54 -46.71,-0.05 -35.06,17.45z"/>
  <path class="fil3" d="M19264.61 27547.08c57.8,86.7 115.59,173.38 173.42,260.13 4.93,-6.34 9.85,-12.67 14.78,-19 -109.87,23.12 -219.69,46.21 -329.52,69.35 7.05,4.09 14.04,8.14 21.07,12.23 52.03,-109.84 104.07,-219.65 156.1,-329.48 8.62,-18.2 -30.09,-15.26 -36.2,-2.28 -52.04,109.82 -104.06,219.64 -156.09,329.48 -6.38,13.45 12.96,13.93 21.07,12.22 109.81,-23.13 219.69,-46.22 329.52,-69.37 7.6,-1.57 20.88,-9.8 14.72,-19 -57.79,-86.69 -115.59,-173.41 -173.37,-260.11 -8.18,-12.27 -45.31,1.1 -35.5,15.83z"/>
  <path class="fil3" d="M18620.84 27546.39c57.83,86.68 115.62,173.42 173.42,260.11 5.24,-5.24 10.42,-10.46 15.66,-15.7 -109.83,23.13 -219.65,46.27 -329.48,69.41 7.13,1.89 14.25,3.81 21.38,5.71 52.03,-109.83 104.06,-219.64 156.1,-329.48 4.7,-9.99 -32.86,-6.01 -38.27,5.41 -52.04,109.84 -104.06,219.7 -156.09,329.53 -4.49,9.53 18.69,6.32 21.42,5.76 109.81,-23.13 219.64,-46.28 329.47,-69.42 5.89,-1.22 21.12,-7.51 15.66,-15.65 -57.79,-86.72 -115.59,-173.42 -173.43,-260.12 -6.33,-9.59 -43.67,2.64 -35.84,14.44z"/>
  <path class="fil3" d="M17976 27544.32c57.8,86.68 115.59,173.42 173.39,260.11 7.47,-4.62 14.95,-9.23 22.38,-13.81 -109.83,23.13 -219.64,46.22 -329.47,69.36 5.28,1.9 10.6,3.82 15.92,5.72 51.99,-109.83 104.02,-219.65 156.05,-329.46 4.09,-8.68 -32.98,-4.99 -38.13,5.88 -52.04,109.83 -104.07,219.64 -156.05,329.48 -3.43,7.2 13.29,6.29 15.88,5.7 109.86,-23.09 219.69,-46.22 329.52,-69.36 2.68,-0.56 26.95,-6.9 22.34,-13.81 -57.8,-86.73 -115.59,-173.43 -173.39,-260.1 -7.25,-10.91 -42.96,3.48 -38.44,10.29z"/>
  <path class="fil3" d="M17333.95 27547.26c57.79,86.72 115.62,173.42 173.42,260.12 4.84,-6.66 9.68,-13.29 14.52,-19.97 -109.83,23.13 -219.66,46.27 -329.48,69.37 7.08,4.47 14.21,8.92 21.33,13.41 52.04,-109.84 104.07,-219.65 156.09,-329.48 8.93,-18.87 -29.81,-16.93 -36.37,-3.06 -52.02,109.81 -104.06,219.62 -156.09,329.45 -6.51,13.78 12.84,15.22 21.37,13.42 109.83,-23.13 219.65,-46.27 329.48,-69.36 8.14,-1.72 20.81,-10.6 14.51,-20.01 -57.78,-86.69 -115.58,-173.43 -173.37,-260.12 -8.75,-13.06 -45.71,0.81 -35.41,16.23z"/>
  <path class="fil3" d="M16688.86 27544.32c57.78,86.68 115.62,173.42 173.42,260.11 7.48,-4.44 15,-8.84 22.52,-13.28 -109.83,23.14 -219.7,46.23 -329.52,69.37 5.27,1.67 10.51,3.33 15.74,5.05 52.03,-109.82 104.07,-219.69 156.1,-329.53 3.69,-7.78 -33.12,-4.25 -38.09,6.21 -52.03,109.82 -104.02,219.65 -156.06,329.53 -3.29,6.9 13.38,5.52 15.75,5.01 109.83,-23.14 219.65,-46.23 329.48,-69.36 2.46,-0.54 26.83,-6.82 22.52,-13.3 -57.84,-86.73 -115.63,-173.43 -173.43,-260.1 -6.94,-10.43 -42.49,4.21 -38.43,10.29z"/>
  <path class="fil3" d="M16046.75 27546.95c57.79,86.75 115.59,173.42 173.43,260.17 4.96,-6.21 9.9,-12.37 14.86,-18.53 -109.83,23.13 -219.66,46.22 -329.47,69.37 6.98,3.87 13.94,7.74 20.88,11.65 52.04,-109.82 104.07,-219.69 156.1,-329.52 8.45,-17.84 -30.17,-14.38 -36.06,-1.88 -52.04,109.82 -104.07,219.64 -156.11,329.48 -6.28,13.31 13.03,13.31 20.9,11.64 109.88,-23.09 219.69,-46.22 329.52,-69.36 7.34,-1.54 20.94,-9.45 14.91,-18.52 -57.84,-86.68 -115.63,-173.38 -173.43,-260.11 -7.91,-11.82 -45.08,1.32 -35.53,15.61z"/>
  <path class="fil3" d="M15403.07 27546.56c57.78,86.69 115.58,173.39 173.42,260.11 5.14,-5.5 10.29,-11 15.43,-16.49 -109.82,23.09 -219.65,46.24 -329.51,69.35 7.2,2.21 14.42,4.37 21.64,6.57 52.03,-109.84 104.05,-219.65 156.04,-329.48 5.19,-10.91 -32.67,-6.87 -38.35,5.12 -52.02,109.81 -104.01,219.62 -156.05,329.46 -4.75,9.94 18.61,7.2 21.59,6.55 109.88,-23.09 219.7,-46.23 329.53,-69.36 6.29,-1.32 21.06,-8.05 15.44,-16.49 -57.8,-86.73 -115.64,-173.43 -173.43,-260.11 -6.82,-10.25 -44.16,2.19 -35.75,14.77z"/>
  <path class="fil3" d="M14759.68 27547.31c57.84,86.73 115.64,173.42 173.42,260.16 4.84,-6.78 9.64,-13.45 14.48,-20.19 -109.83,23.08 -219.69,46.23 -329.52,69.36 7.17,4.53 14.29,9.1 21.46,13.64 52.04,-109.84 104.06,-219.67 156.05,-329.48 9.02,-19 -29.77,-17.28 -36.41,-3.27 -52.03,109.84 -104.07,219.67 -156.1,329.48 -6.51,13.82 12.81,15.5 21.47,13.69 109.81,-23.14 219.64,-46.28 329.47,-69.4 8.23,-1.72 20.76,-10.74 14.47,-20.19 -57.8,-86.7 -115.63,-173.39 -173.42,-260.12 -8.84,-13.24 -45.74,0.71 -35.37,16.32z"/>
  <path class="fil3" d="M20550.26 27544.32c57.8,86.68 115.59,173.42 173.44,260.11 7.6,-4.01 15.21,-8 22.82,-12 -109.82,23.13 -219.65,46.27 -329.47,69.36 5.1,1.13 10.2,2.28 15.31,3.38 52.03,-109.83 104.01,-219.65 156.04,-329.47 2.64,-5.5 -33.29,-2.73 -37.86,6.91 -52.04,109.81 -104.03,219.63 -156.06,329.5 -2.9,6.12 13.42,3.78 15.31,3.39 109.83,-23.12 219.64,-46.26 329.47,-69.37 2.03,-0.42 26.34,-6.7 22.88,-12 -57.84,-86.73 -115.64,-173.43 -173.43,-260.1 -6.21,-9.33 -41.25,6.02 -38.45,10.29z"/>
  <path class="fil4" d="M17023.16 24343.4c0,0 -563.02,-139.17 -1055.05,67.55 -492,206.67 -423.29,-1189.57 -384.85,-1238.48 38.44,-48.89 946.77,-600.88 946.77,-600.88l493.13 1771.81z"/>
  <path class="fil4" d="M17997.56 24324.04c0,0 570.32,-105.43 1049.16,130.18 478.84,235.58 493.31,-1162.28 457.87,-1213.39 -35.46,-51.11 -909.31,-656.14 -909.31,-656.14l-597.72 1739.35z"/>
  <path class="fil1" d="M16468.32 23037.24c-109.9,-341 -370.2,-262.06 -394.56,-253.83 -25.56,2.99 -294.6,42.93 -248.11,398.22 46.76,357.35 254.13,551.06 448.54,494.15 200.11,-31.72 304.7,-295.48 194.13,-638.54z"/>
  <path class="fil1" d="M18663.15 23037.24c109.92,-341 370.2,-262.06 394.56,-253.83 25.56,2.99 294.6,42.93 248.12,398.22 -46.75,357.35 -254.09,551.06 -448.55,494.15 -200.11,-31.72 -304.7,-295.48 -194.13,-638.54z"/>
  <path class="fil0" d="M16201.66 22520.66c136.21,-1495.02 1272.76,-1411.28 1379.96,-1400.02 107.18,-11.26 1243.73,-95 1379.96,1400.02 137,1503.9 -532.85,2486.06 -1379.96,2432.07 -847.11,53.99 -1516.96,-928.17 -1379.96,-2432.07z"/>
  <path class="fil5" d="M16022.6 22899.78l390.3 300.41 949.81 47.33 10.03 -11.09 0.13 -0.17c2.46,-2.68 33.17,-35.37 82.17,-66.64 48.99,-31.41 115.67,-60.92 190.39,-60.83 73.37,0.26 156.32,27.05 246.31,114.4l8.97 8.75 874.33 15.09 372.58 -302.16 -39.71 -49 -354.78 287.69 -838.83 -14.46 -0.53 31.53 21.99 -22.61c-99.01,-96.93 -200.52,-132.56 -290.33,-132.3 -94.43,0.08 -173.9,37.65 -229.68,74.2 -55.85,36.68 -88.62,72.93 -89.85,74.25l23.4 21.11 1.58 -31.5 -915.1 -45.6 -374.69 -288.35 -38.44 49.95 -0.05 0z"/>
  <path class="fil6" d="M16432.44 23173.67c0,255.36 206.98,462.35 462.34,462.35 255.36,0 462.35,-206.99 462.35,-462.35 0,-255.32 -206.99,-462.34 -462.35,-462.34 -255.36,0 -462.34,207.02 -462.34,462.34z"/>
  <path class="fil5" d="M16432.44 23173.67l-29.48 0c0.05,271.63 220.18,491.77 491.82,491.81 271.59,-0.04 491.77,-220.18 491.77,-491.81 0,-271.59 -220.18,-491.77 -491.77,-491.77 -271.64,0 -491.77,220.18 -491.82,491.77l58.9 0c0,-119.64 48.42,-227.66 126.79,-306.13 78.44,-78.37 186.49,-126.75 306.13,-126.79 119.63,0.04 227.66,48.42 306.12,126.79 78.38,78.47 126.75,186.49 126.8,306.13 -0.05,119.68 -48.42,227.7 -126.8,306.12 -78.46,78.42 -186.49,126.8 -306.12,126.8 -119.64,0 -227.69,-48.38 -306.13,-126.8 -78.37,-78.42 -126.79,-186.44 -126.79,-306.12l-29.42 0z"/>
  <path class="fil6" d="M17861.48 23173.67c0,255.36 206.98,462.35 462.34,462.35 255.36,0 462.35,-206.99 462.35,-462.35 0,-255.32 -206.99,-462.34 -462.35,-462.34 -255.36,0 -462.34,207.02 -462.34,462.34z"/>
  <path class="fil5" d="M17861.48 23173.67l-29.43 0c0,271.63 220.13,491.77 491.77,491.81 271.63,-0.04 491.77,-220.18 491.77,-491.81 0,-271.59 -220.14,-491.77 -491.77,-491.77 -271.64,0 -491.77,220.18 -491.77,491.77l58.85 0c0.04,-119.64 48.42,-227.66 126.81,-306.13 78.42,-78.37 186.47,-126.75 306.11,-126.79 119.63,0.04 227.7,48.42 306.12,126.79 78.38,78.47 126.81,186.49 126.81,306.13 0,119.68 -48.43,227.7 -126.81,306.12 -78.42,78.42 -186.49,126.8 -306.12,126.8 -119.64,0 -227.69,-48.38 -306.11,-126.8 -78.39,-78.42 -126.77,-186.44 -126.81,-306.12l-29.42 0z"/>
  <path class="fil1" d="M17777.6 23260.71c18.73,34.52 33.21,69.98 46.28,105.68 12.92,35.77 23.87,71.92 33.63,108.34 5.2,18.12 8.8,36.59 13.29,54.89 4.62,18.25 8.04,36.77 11.39,55.33 7.39,36.9 12.58,74.24 16.76,111.85l1.97 17.59 -9.53 8.71c-30.49,27.93 -61.8,55.02 -93.65,81.63 -32.36,26.17 -64.52,52.47 -99.31,76.26 22.56,-35.58 47.72,-68.64 72.66,-101.94 25.47,-32.77 51.41,-65.06 78.24,-96.54l-7.56 26.29c-11.3,-36.1 -21.55,-72.4 -29.64,-109.16 -4.4,-18.29 -8.66,-36.63 -11.79,-55.25 -3.26,-18.51 -7.35,-36.89 -9.94,-55.59 -5.67,-37.25 -10.16,-74.77 -12.72,-112.72 -2.42,-37.96 -3.38,-76.22 -0.08,-115.37z"/>
  <path class="fil7" d="M18161.05 24149.57c-270.59,263.05 -728.93,248.44 -1076.09,14.06l1076.09 -14.06z"/>
  <path class="fil3" d="M18653.43 22753.81c0,0 -11.83,-6.55 -32.56,-18.04 -10.06,-5.49 -22.29,-12.18 -36.28,-19.87 -13.72,-7.26 -29.19,-15.45 -46.14,-24.37 -17.45,-7.48 -34.92,-17.54 -54.44,-25.2 -9.45,-4.23 -19.18,-8.54 -29.12,-12.98 -9.98,-3.65 -20.23,-7.34 -30.65,-11.17 -20.24,-8.98 -42.32,-12.27 -63.34,-19.7 -21.77,-2.24 -43.2,-10.52 -64.97,-9.69l-32.41 -2.63c-10.64,1.28 -21.33,1.62 -32.02,2.25 -21.64,-0.92 -41.74,7.12 -62.64,9.71 -20.79,3.3 -39.48,13.38 -59.05,18.53l-14.48 4.47 -13.15 6.65c-8.93,4.22 -17.59,8.23 -25.91,12.14 -16.49,8.18 -33.43,14.08 -46.18,22.95 -13.1,8.23 -25.55,14.7 -35.79,20.33 -20.55,11.08 -33.7,16.93 -33.7,16.93 0,0 5.2,-12.53 16.8,-33.43 5.85,-10.42 12.89,-23.44 22.17,-37.51 8.18,-15.14 21.16,-28.94 35.89,-43.94 15.21,-14.3 28.94,-34.09 50.48,-46.58 21.04,-12.84 41.83,-30.26 67.97,-39.93 12.89,-5.24 26.34,-9.9 40.02,-14.74 13.41,-5.72 27.89,-8.18 42.71,-9.9 14.72,-2.02 29.64,-4.31 44.68,-5.67 14.95,0.17 30.04,1.23 45.09,2.07 30.52,0.61 58.71,10.73 86.99,17.63 13.59,4.89 26.57,10.78 39.45,16.37 13.07,5.27 25.34,11.34 36.56,18.86 11.43,7.05 22.74,13.64 33.37,20.81 9.95,7.87 19.71,15.57 29.21,23.09 19.22,14.51 33.83,32.33 48.38,46.84 27.36,31.18 46.23,59.91 57.36,81.28 11.56,21.12 15.7,34.44 15.7,34.44z"/>
  <path class="fil3" d="M17237.66 22753.81c0,0 -11.83,-6.55 -32.54,-18.04 -10.07,-5.49 -22.3,-12.18 -36.29,-19.87 -13.71,-7.26 -29.2,-15.45 -46.13,-24.37 -17.47,-7.48 -34.88,-17.54 -54.46,-25.2 -9.45,-4.23 -19.17,-8.54 -29.06,-12.98 -10.04,-3.65 -20.28,-7.34 -30.71,-11.17 -20.23,-8.98 -42.31,-12.27 -63.33,-19.7 -21.77,-2.24 -43.19,-10.52 -64.96,-9.69l-32.41 -2.63c-10.65,1.28 -21.34,1.62 -31.98,2.25 -21.68,-0.92 -41.78,7.12 -62.68,9.71 -20.81,3.3 -39.49,13.38 -59.07,18.53l-14.42 4.47 -13.19 6.65c-8.94,4.22 -17.61,8.23 -25.91,12.14 -16.5,8.18 -33.43,14.08 -46.14,22.95 -13.16,8.23 -25.6,14.7 -35.81,20.33 -20.53,11.08 -33.72,16.93 -33.72,16.93 0,0 5.22,-12.53 16.79,-33.43 5.85,-10.42 12.89,-23.44 22.17,-37.51 8.17,-15.14 21.15,-28.94 35.89,-43.94 15.22,-14.3 28.94,-34.09 50.49,-46.58 21.02,-12.84 41.83,-30.26 67.95,-39.93 12.89,-5.24 26.35,-9.9 40.04,-14.74 13.41,-5.72 27.87,-8.18 42.7,-9.9 14.73,-2.02 29.68,-4.31 44.68,-5.67 15,0.17 30.05,1.23 45.08,2.07 30.52,0.61 58.72,10.73 87,17.63 13.59,4.89 26.57,10.78 39.46,16.37 13.05,5.27 25.37,11.34 36.54,18.86 11.44,7.05 22.74,13.64 33.39,20.81 9.99,7.87 19.7,15.57 29.2,23.09 19.26,14.51 33.82,32.33 48.39,46.84 27.35,31.18 46.21,59.91 57.35,81.28 11.57,21.12 15.69,34.44 15.69,34.44z"/>
  <path class="fil3" d="M17192.77 23295.54c0,0 -3.08,-12.13 -9.99,-32.45 -6.91,-20.29 -17.64,-48.91 -34.4,-80.23 -16.98,-31.06 -40.68,-64.83 -73.72,-89.45 -16.3,-12.46 -35.01,-22.36 -55.28,-28.51 -9.98,-3.52 -20.18,-6.82 -31.23,-7.53 -10.77,-1.44 -21.42,-3.74 -32.76,-2.59 -10.48,0.4 -23.79,-0.92 -31.93,0.57 -11.44,2.2 -25.77,2.77 -34.61,6.25 -17.87,5.81 -38.23,12.62 -53.58,25.42 -16.4,11.26 -29.12,26.7 -40.55,42.01 -10.29,16.23 -19.09,32.76 -25.56,49.17 -12.76,32.76 -19.21,62.67 -23,83.74 -3.73,21.11 -4.84,33.6 -4.84,33.6 0,0 -3.34,-12.04 -5.59,-33.95 -2.05,-21.82 -3.34,-53.79 4.49,-91.97 3.79,-19.09 10.34,-39.58 20.59,-60.29 11.17,-20.11 24.67,-41.88 45.39,-58.29 19.44,-17.68 43.67,-30.66 71.83,-39.01 13.98,-4.79 24.49,-4.92 37.02,-7.66 16.01,-2.76 27.54,-1.35 41.57,-2.1 13.37,-0.75 26.96,2.07 40.37,4.26 13.55,1.46 26.57,5.76 39.32,10.6 13.21,3.65 24.9,10.47 36.3,17.5 11.92,6.08 21.54,15.05 31.44,23.23 38.52,34.17 59.94,76.84 71.91,113.17 12.27,36.59 15.75,68.26 17.02,90.11 1.1,21.96 -0.21,34.4 -0.21,34.4z"/>
  <path class="fil3" d="M18465.01 23275.04c0,0 -3.08,-12.18 -9.99,-32.5 -6.91,-20.27 -17.63,-48.86 -34.4,-80.18 -16.97,-31.05 -40.68,-64.83 -73.76,-89.45 -16.27,-12.46 -34.96,-22.36 -55.23,-28.55 -9.98,-3.52 -20.2,-6.77 -31.23,-7.52 -10.78,-1.41 -21.47,-3.7 -32.76,-2.59 -10.48,0.43 -23.84,-0.93 -31.95,0.61 -11.43,2.15 -25.77,2.73 -34.61,6.19 -17.85,5.86 -38.22,12.63 -53.57,25.44 -16.44,11.26 -29.11,26.69 -40.54,42.04 -10.3,16.18 -19.09,32.76 -25.56,49.13 -12.76,32.81 -19.23,62.71 -23,83.74 -3.74,21.15 -4.84,33.64 -4.84,33.64 0,0 -3.34,-12.09 -5.59,-33.99 -2.07,-21.82 -3.34,-53.75 4.49,-91.93 3.78,-19.08 10.34,-39.62 20.59,-60.34 11.17,-20.06 24.67,-41.87 45.38,-58.27 19.45,-17.68 43.67,-30.66 71.82,-39.01 13.99,-4.75 24.5,-4.93 37.04,-7.62 16.01,-2.81 27.48,-1.41 41.56,-2.11 13.38,-0.78 26.92,2.02 40.33,4.23 13.59,1.49 26.57,5.76 39.37,10.59 13.16,3.66 24.89,10.47 36.28,17.51 11.92,6.11 21.56,15.09 31.45,23.23 38.53,34.21 59.95,76.83 71.91,113.16 12.28,36.6 15.75,68.26 17.03,90.12 1.1,21.99 -0.22,34.43 -0.22,34.43z"/>
  <path class="fil8" d="M16257.08 20942.9c0,0 425.18,-542.47 1275.49,-190.61 483.82,-307.87 850.32,-161.24 1202.18,102.66l-1128.86 571.77 -1348.81 -483.82z"/>
  <path class="fil8" d="M14710.24 24100.17c0,0 -4.92,-14.57 -14.11,-41.86 -9.67,-27.2 -22.13,-67.58 -35.76,-120.05 -6.33,-26.31 -12.09,-55.63 -19.08,-87.6 -5.59,-32.17 -10.7,-67.21 -15.66,-104.82 -6.16,-75.39 -12.15,-162.07 2.5,-255.8 14.43,-92.85 38.22,-195.25 90.95,-291.7 10.43,-25.5 27.46,-47.63 41.66,-71.87 14.69,-23.96 29.51,-48.37 48.38,-70.06 17.98,-22.3 35.67,-45.53 54.89,-67.56 20.81,-20.53 41.83,-41.3 63.03,-62.19 20.4,-21.9 44.42,-39.72 67.9,-58.63 23.85,-18.34 46.63,-38.79 71.88,-55.73 51.45,-32.05 100.93,-69.97 156.96,-96.22 53.71,-28.16 107.86,-56.52 162.22,-85.02 48.11,-29.65 96.36,-61.94 138.45,-102.4 86.91,-77.23 151.44,-176.9 199.51,-282.85 46.8,-106.88 80.8,-218.95 108.46,-329.7 27.49,-110.88 52.48,-219.69 80.58,-322.47 27.7,-102.89 60.69,-199.34 100.45,-284.53 39.1,-85.55 86.51,-158.7 135.39,-217.32 49.83,-58.06 99.84,-101.96 143.51,-134.19 44.02,-31.8 80.96,-53.13 107.01,-65.66 25.68,-13.07 39.41,-20.11 39.41,-20.11 0,0 -12.89,8.45 -36.99,24.23 -24.59,14.83 -57.93,40.87 -98.7,74.87 -40.15,34.96 -85.11,81.5 -128.34,140.92 -42.19,60.21 -81.5,133.31 -114.88,217.19 -33.17,84.04 -59.65,178.78 -83.18,280.64 -21.9,103.15 -45.03,211.91 -68.92,324.47 -25.99,112.94 -55.94,231.26 -106.17,346.1 -50.54,114.18 -121,226.02 -217.76,313.19 -46.97,44.39 -101.51,80.76 -157.94,114.23 -54.23,27.84 -108.24,55.6 -161.86,83.09l-39.36 20.18c-12.84,7.08 -24.85,15.49 -37.34,22.92 -24.85,15.31 -49.52,30.52 -74.11,45.65 -24.32,15.44 -45.97,34.09 -68.88,50.76 -22.57,17.19 -45.78,33.39 -65.13,53.35 -20.29,19 -40.44,37.87 -60.36,56.56 -17.89,20.54 -35.58,40.86 -53.12,61.01 -18.57,19.43 -33.04,41.42 -47.55,63.07 -14.03,21.9 -31.01,41.86 -41.47,65.09 -11.83,22.52 -23.49,44.77 -35.01,66.63 -9.03,23.05 -17.95,45.74 -26.7,68.08 -10.03,22 -14.78,45.27 -21.25,67.56 -5.93,22.48 -13.28,44.3 -16.01,66.59 -3.74,22.17 -7.43,43.9 -11.03,65.1 -1.81,21.5 -3.62,42.49 -5.38,62.98 -5.23,41 -1.97,80.36 -3.2,117.31 1.88,36.85 4.13,71.55 7.08,103.53 4.3,31.89 8.27,61.23 11.83,87.66 9.85,52.43 16.59,94.25 23.67,122.22 6.24,28.16 9.53,43.16 9.53,43.16z"/>
  <path class="fil8" d="M17629.68 21616.33c0,0 -13.98,-6.46 -41.07,-15.61 -27.14,-9.02 -67.25,-21.6 -119.11,-31.1 -51.63,-9.15 -115.8,-15.62 -185.61,-5.54 -69.53,10.07 -143.11,42.43 -197.74,104.59 -6.86,7.65 -13.77,15.39 -20.76,23.22 -5.54,9.15 -11.12,18.38 -16.76,27.71 -5.63,9.28 -11.31,18.61 -17.02,28.02 -5.63,9.5 -8.75,20.85 -13.32,31.27 -4.27,10.6 -8.63,21.25 -12.98,32.02l-6.16 14.51 -5.36 18.34c-6.96,24.41 -14.91,49.57 -21.34,74.42 -23.92,95.18 -35.98,204.79 -51.01,318.26 -15,113.7 -32.21,237.42 -79.26,357.23 -45.88,119.68 -117.7,232.44 -205.36,326.7 -21.77,23.66 -45.87,44.73 -68.75,67.12 -22.55,22.87 -47.28,42.71 -72.09,62.23 -24.76,19.49 -48.81,40.12 -74.1,58.46 -25.69,17.63 -51.33,35.23 -76.84,52.74 -54.58,37.2 -94.95,63.46 -124.69,100.14 -31.32,37.25 -51.19,81.86 -60.57,130.49 -17.81,97.96 -0.7,205.14 22.97,304.06 24.19,99.44 54.01,194.18 79.12,282.77 25.9,88.44 46.66,171.52 58.41,246.83 12.35,75.17 13.85,142.94 5.67,197.56 -7.52,54.98 -26.57,94.7 -39.81,120.21 -15.74,24.5 -24.58,36.82 -24.58,36.82 0,0 6.38,-13.85 18.34,-39.77 9.28,-26.91 19.93,-67.1 20.77,-119.27 0.96,-52.13 -9.24,-115.02 -28.16,-185.43 -19.17,-70.51 -47.85,-148.36 -80.09,-233.78 -32.55,-85.41 -70.5,-177.65 -101.56,-281 -30.43,-102.49 -60.65,-218.46 -41.69,-348.21 9.59,-64.13 35.53,-130.55 78.25,-185.22 10.77,-13.54 21.02,-27.31 35.01,-39.71 12.7,-11.88 27.57,-27.27 38.66,-34.62l38.96 -28.5 35.76 -25.25c23.88,-16.79 47.9,-33.68 71.96,-50.58 23.52,-17.54 45.34,-36.89 68.21,-55.28 22.88,-18.39 45.57,-36.99 65.58,-58.01 20.49,-20.54 42.31,-40.16 61.8,-61.44 79.83,-83.97 142.54,-180.47 184.24,-284.88 41.78,-104.54 64.92,-216.26 83.04,-328.91 18.3,-113.12 37.56,-223.52 71.47,-330.61 8.32,-25.56 17.51,-49.35 26,-73.54l6.46 -17.99c3.91,-9.28 6.21,-13.15 9.37,-19.92 6.03,-12.14 12.01,-24.15 17.91,-36.07 6.37,-11.69 11.08,-23.89 18.64,-34.79 7.79,-10.73 15.53,-21.42 23.14,-31.97 7.69,-10.42 15.34,-20.76 22.86,-30.97 9.33,-8.93 18.57,-17.82 27.72,-26.57 73.01,-71.16 167.4,-99.48 245.11,-101.77 78.82,-3.39 144.66,13.29 196.42,29.42 52.13,16.18 89.86,36.38 115.59,49.22 25.56,13.42 38.35,21.95 38.35,21.95z"/>
  <path class="fil8" d="M16362.68 20854.95c-733.02,454.46 -205.23,1480.72 -967.62,1905.9 -762.35,425.18 -689.04,1011.6 -527.8,1436.78 57.31,151.04 216.49,233.43 397.74,277.09 -56.03,-220.3 -100.67,-533.9 -19.52,-834.21 0,0 -57.93,512.04 116.28,853.79 93.33,15.48 188.65,22.72 276.17,25.07 -22.39,-88.9 -38.09,-200.08 -25.95,-321.74 0,0 31.67,158.06 98.09,322.61 164.22,-0.09 286.1,-14.72 286.1,-14.72 293.23,-351.88 -425.18,-1158.25 117.3,-1436.8 800.75,-411.19 615.76,-821.03 835.67,-1275.49 219.92,-454.48 627.42,-146.59 627.42,-146.59 73.32,-865.02 -480.83,-1246.21 -1213.88,-791.69z"/>
  <path class="fil8" d="M20387.23 24100.17c0,0 3.3,-15 9.5,-43.16 7.13,-27.97 13.85,-69.79 23.7,-122.22 3.56,-26.43 7.53,-55.77 11.83,-87.66 2.95,-31.98 5.15,-66.68 7.08,-103.53 -1.27,-36.95 1.98,-76.31 -3.25,-117.31 -1.71,-20.49 -3.52,-41.48 -5.37,-62.98 -3.6,-21.2 -7.25,-42.93 -11.03,-65.1 -2.69,-22.29 -10.04,-44.11 -15.97,-66.59 -6.51,-22.29 -11.26,-45.56 -21.24,-67.56 -8.76,-22.34 -17.68,-45.03 -26.75,-68.08 -11.48,-21.86 -23.12,-44.11 -34.96,-66.63 -10.47,-23.23 -27.45,-43.19 -41.48,-65.09 -14.51,-21.65 -29.02,-43.64 -47.58,-63.07 -17.51,-20.15 -35.24,-40.47 -53.09,-61.01 -19.92,-18.69 -40.07,-37.56 -60.34,-56.56 -19.4,-19.96 -42.63,-36.16 -65.15,-53.35 -22.95,-16.67 -44.56,-35.32 -68.92,-50.76 -24.55,-15.13 -49.26,-30.34 -74.07,-45.65 -12.53,-7.43 -24.5,-15.84 -37.34,-22.92l-39.36 -20.18c-53.62,-27.49 -107.67,-55.25 -161.9,-83.09 -56.43,-33.47 -110.92,-69.84 -157.94,-114.23 -96.72,-87.17 -167.23,-199.01 -217.76,-313.19 -50.23,-114.84 -80.18,-233.16 -106.13,-346.1 -23.93,-112.56 -47.02,-221.32 -68.92,-324.47 -23.53,-101.86 -50.01,-196.6 -83.18,-280.64 -33.37,-83.88 -72.74,-156.98 -114.92,-217.19 -43.19,-59.42 -88.15,-105.96 -128.29,-140.92 -40.78,-34 -74.16,-60.04 -98.74,-74.87 -24.12,-15.78 -36.96,-24.23 -36.96,-24.23 0,0 13.68,7.04 39.37,20.11 26.09,12.53 62.98,33.86 107.01,65.66 43.71,32.23 93.72,76.13 143.52,134.19 48.86,58.62 96.32,131.77 135.42,217.32 39.76,85.19 72.75,181.64 100.41,284.53 28.1,102.78 53.13,211.59 80.62,322.47 27.66,110.75 61.66,222.82 108.47,329.7 48.02,105.95 112.54,205.62 199.45,282.85 42.09,40.46 90.34,72.75 138.47,102.4 54.35,28.5 108.54,56.86 162.25,85.02 55.99,26.25 105.46,64.17 156.96,96.22 25.25,16.94 48.04,37.39 71.88,55.73 23.44,18.91 47.5,36.73 67.91,58.63 21.15,20.89 42.18,41.66 62.97,62.19 19.28,22.03 36.96,45.26 54.95,67.56 18.86,21.69 33.69,46.1 48.37,70.06 14.22,24.24 31.18,46.37 41.66,71.87 52.68,96.45 76.52,198.85 90.91,291.7 14.69,93.73 8.66,180.41 2.51,255.8 -4.93,37.61 -10.08,72.65 -15.61,104.82 -7,31.97 -12.76,61.29 -19.09,87.6 -13.69,52.47 -26.13,92.85 -35.81,120.05 -9.19,27.29 -14.07,41.86 -14.07,41.86z"/>
  <path class="fil8" d="M17467.79 21616.33c0,0 12.75,-8.53 38.35,-21.95 25.68,-12.84 63.47,-33.04 115.54,-49.22 51.81,-16.13 117.62,-32.81 196.47,-29.42 77.73,2.29 172.1,30.61 245.11,101.77 9.16,8.75 18.34,17.64 27.67,26.57 7.57,10.21 15.17,20.55 22.88,30.97 7.65,10.55 15.35,21.24 23.12,31.97 7.57,10.9 12.32,23.1 18.66,34.79 5.93,11.92 11.92,23.93 17.94,36.07 3.16,6.77 5.41,10.64 9.37,19.92l6.46 17.99c8.49,24.19 17.69,47.98 26,73.54 33.87,107.09 53.13,217.49 71.47,330.61 18.08,112.65 41.26,224.37 83,328.91 41.74,104.41 104.41,200.91 184.24,284.88 19.53,21.28 41.35,40.9 61.79,61.44 20.01,21.02 42.75,39.62 65.63,58.01 22.83,18.39 44.69,37.74 68.17,55.28 24.1,16.9 48.08,33.79 71.95,50.58l35.81 25.25 38.93 28.5c11.12,7.35 25.94,22.74 38.69,34.62 13.96,12.4 24.24,26.17 34.98,39.71 42.75,54.67 68.69,121.09 78.28,185.22 18.91,129.75 -11.3,245.72 -41.73,348.21 -31.02,103.35 -69.02,195.59 -101.56,281.05 -32.24,85.37 -60.88,163.22 -80.09,233.73 -18.88,70.41 -29.13,133.3 -28.15,185.43 0.88,52.17 11.48,92.36 20.81,119.27 11.95,25.92 18.33,39.77 18.33,39.77 0,0 -8.88,-12.32 -24.63,-36.82 -13.24,-25.51 -32.28,-65.23 -39.8,-120.21 -8.19,-54.62 -6.64,-122.39 5.71,-197.56 11.75,-75.31 32.51,-158.39 58.38,-246.83 25.11,-88.59 54.93,-183.33 79.11,-282.77 23.67,-98.92 40.77,-206.1 22.97,-304.06 -9.33,-48.63 -29.25,-93.24 -60.57,-130.49 -29.68,-36.68 -70.11,-62.94 -124.69,-100.14 -25.52,-17.51 -51.11,-35.11 -76.84,-52.74 -25.24,-18.34 -49.3,-38.97 -74.11,-58.46 -24.8,-19.52 -49.49,-39.36 -72.04,-62.23 -22.88,-22.39 -46.98,-43.46 -68.8,-67.12 -87.65,-94.26 -159.43,-207.02 -205.35,-326.7 -47.06,-119.81 -64.26,-243.53 -79.2,-357.23 -15.05,-113.47 -27.11,-223.08 -51.07,-318.26 -6.42,-24.85 -14.39,-50.01 -21.33,-74.42l-5.33 -18.34 -6.19 -14.51c-4.37,-10.77 -8.67,-21.42 -12.98,-32.02 -4.54,-10.42 -7.71,-21.77 -13.29,-31.27 -5.71,-9.41 -11.44,-18.74 -17.06,-28.02 -5.58,-9.33 -11.17,-18.56 -16.72,-27.71 -6.99,-7.83 -13.94,-15.57 -20.81,-23.22 -54.58,-62.16 -128.2,-94.52 -197.69,-104.59 -69.8,-10.08 -134.02,-3.61 -185.66,5.54 -51.85,9.5 -91.96,22.08 -119.05,31.1 -27.14,9.15 -41.08,15.61 -41.08,15.61z"/>
  <path class="fil8" d="M19702.37 22760.85c-762.35,-425.18 -234.56,-1451.44 -967.62,-1905.9 -733.01,-454.52 -1231.51,-73.33 -1158.19,791.69 0,0 351.86,-307.89 571.77,146.59 219.92,454.46 34.88,864.3 835.67,1275.49 542.44,278.55 -175.93,1084.92 117.3,1436.8 0,0 232.84,28.09 489.14,6.63 48.02,-122.4 99.66,-298.69 126.62,-534.43 0,0 42.23,254.31 -34.13,524.44 66.72,-8.82 133.18,-21.68 196.12,-39.72 24.81,-70.8 46.14,-146.24 57.92,-220.82 0,0 5.76,86.78 -6.51,204.6 138.73,-48.15 253.03,-125.57 299.7,-248.59 161.29,-425.18 234.6,-1011.6 -527.79,-1436.78z"/>
  <path class="fil3" d="M8842.12 23506.39c0,0 -357.37,-79.43 -410.31,225.02 -52.97,304.45 158.82,370.64 158.82,370.64 0,0 -317.69,-357.4 -542.71,-105.91 -225.05,251.55 145.58,463.31 145.58,463.31 0,0 -410.31,-225.02 -489.74,52.97 -79.44,277.97 251.49,450.07 251.49,450.07 0,0 -357.4,-26.48 -344.16,132.34 13.23,158.88 357.4,26.47 357.4,26.47 0,0 -502.98,92.67 -423.6,489.79 79.43,397.09 476.56,172.07 476.56,172.07 0,0 -304.46,158.87 -225.02,661.86 79.39,502.97 2342.92,-516.23 2342.92,-516.23l39.71 -1363.42 -1336.94 -1058.98z"/>
  <path class="fil3" d="M11454.56 23506.39c0,0 357.41,-79.43 410.36,225.02 52.96,304.45 -158.87,370.64 -158.87,370.64 0,0 317.69,-357.4 542.75,-105.91 225.02,251.55 -145.63,463.31 -145.63,463.31 0,0 410.36,-225.02 489.79,52.97 79.44,277.97 -251.53,450.07 -251.53,450.07 0,0 357.4,-26.48 344.2,132.34 -13.23,158.88 -357.45,26.47 -357.45,26.47 0,0 503.03,92.67 423.6,489.79 -79.38,397.09 -476.51,172.07 -476.51,172.07 0,0 304.46,158.87 225.02,661.86 -79.43,502.97 -2342.95,-516.23 -2342.95,-516.23l-39.72 -1363.42 1336.94 -1058.98z"/>
  <path class="fil9" d="M8842.12 23506.39c0,0 -357.37,-79.43 -410.31,225.02 -52.97,304.45 158.82,370.64 158.82,370.64 0,0 -317.69,-357.4 -542.71,-105.91 -225.05,251.55 145.58,463.31 145.58,463.31 0,0 -410.31,-225.02 -489.74,52.97 -79.44,277.97 251.49,450.07 251.49,450.07 0,0 -357.4,-26.48 -344.16,132.34 13.23,158.88 357.4,26.47 357.4,26.47 0,0 -502.98,92.67 -423.6,489.79 79.43,397.09 476.56,172.07 476.56,172.07 0,0 -304.46,158.87 -225.02,661.86 79.39,502.97 2342.92,-516.23 2342.92,-516.23l39.71 -1363.42 -1336.94 -1058.98z"/>
  <path class="fil9" d="M11454.56 23506.39c0,0 357.41,-79.43 410.36,225.02 52.96,304.45 -158.87,370.64 -158.87,370.64 0,0 317.69,-357.4 542.75,-105.91 225.02,251.55 -145.63,463.31 -145.63,463.31 0,0 410.36,-225.02 489.79,52.97 79.44,277.97 -251.53,450.07 -251.53,450.07 0,0 357.4,-26.48 344.2,132.34 -13.23,158.88 -357.45,26.47 -357.45,26.47 0,0 503.03,92.67 423.6,489.79 -79.38,397.09 -476.51,172.07 -476.51,172.07 0,0 304.46,158.87 225.02,661.86 -79.43,502.97 -2342.95,-516.23 -2342.95,-516.23l-39.72 -1363.42 1336.94 -1058.98z"/>
  <path class="fil10" d="M10973.47 25664.19c-373.05,-203.46 -271.33,-1187.14 -271.33,-1187.14l-558.7 36.02 0 -35.89 -59.77 17.94 -59.82 -17.94 0 35.89 -558.67 -36.02c0,0 101.73,983.68 -271.33,1187.14 -373.06,203.49 -2577.52,305.24 -2340.1,2577.52l6459.83 0c237.42,-2272.28 -1967.04,-2374.03 -2340.11,-2577.52z"/>
  <path class="fil11" d="M9386.84 25410.46c446.25,-66.51 892.24,-135.16 1337.92,-205.89 -62.69,-339.15 -22.62,-727.52 -22.62,-727.52l-558.7 36.02 0 -35.89 -59.77 17.94 -59.82 -17.94 0 35.89 -558.71 -36.02c0,0 58.93,571.56 -78.3,933.41z"/>
  <path class="fil12" d="M10993.05 25627.16c-148.18,-79.53 -223.57,-276.44 -260.42,-488.48 -206.42,46.09 -429.98,71.46 -663.61,71.46 -228.98,0 -448.36,-24.27 -651.38,-68.59 -37.04,210.94 -112.42,406.44 -259.95,485.61 -384.71,206.41 -2658.18,309.59 -2413.37,2614.55l6662.11 0c244.85,-2304.96 -2028.62,-2408.14 -2413.38,-2614.55z"/>
  <path class="fil13" d="M10869.89 25515.12l-1589 0c21.05,-29.32 39.55,-62.05 55.83,-97.35l0.08 -0.15 0.27 -0.6 1.03 -2.23 2.43 -5.39 0.6 -1.33 2.97 -6.79 0.08 -0.18 0.9 -2.1c2.09,-4.89 4.15,-9.81 6.17,-14.78l0.53 -1.31 0.94 -2.33 1445.34 0 1.88 4.65 0.95 2.3 1.9 4.61 0.98 2.3 0.96 2.28 1.95 4.56 0.99 2.26 1 2.27 1.99 4.5 1.01 2.24 3.07 6.69 1.03 2.22 2.08 4.41 1.05 2.19 1.06 2.19 2.13 4.35 1.08 2.17 1.07 2.15 0.83 1.67 0.25 0.48 1.1 2.14 1.1 2.15 0.31 0.58 1.91 3.67 1.11 2.1 1.12 2.11 0.17 0.33 2.1 3.86 1.13 2.08 1.15 2.09 0.97 1.75 0.19 0.31 1.16 2.06 1.16 2.05 1.17 2.04 0.64 1.11 0.54 0.94 1.19 2.02 1.18 2.02 1.2 2.02 0.27 0.47 0.94 1.53 1.21 2 1.22 1.98 1.22 1.98 1.22 1.97 1.24 1.96 1.24 1.96 0.77 1.21 0.48 0.73 1.26 1.95 1.26 1.92 1.27 1.92 0.39 0.59 0.88 1.33 1.29 1.89 1.28 1.9 1.3 1.88 0 0.01 1.29 1.87 2.62 3.73 0.91 1.28 0.41 0.56z"/>
  <path class="fil13" d="M11806.03 25871.8l-3461.29 0c28.82,-9.55 57.36,-18.77 85.52,-27.57l0.71 -0.22 0.37 -0.12 0.57 -0.17c17.11,-5.35 34.06,-10.51 50.86,-15.57l0.15 -0.05 2.53 -0.76c15.34,-4.6 30.52,-9.1 45.57,-13.51l2.91 -0.84zm49.18 -14.15l0.76 -0.22c32.93,-9.35 65.08,-18.21 96.34,-26.7l3.24 -0.89 41.24 -11.11 1.71 -0.44 38.38 -10.23 6.35 -1.68 0.2 -0.06 38.69 -10.23 2530.71 0 0.05 0 6.35 1.69 6.38 1.68 12.88 3.42 6.49 1.7 6.54 1.74 0.21 0.06 6.35 1.68 13.22 3.52 6.66 1.77 6.7 1.78 6.73 1.8 5.07 1.36 1.7 0.44 41.24 11.11 3.26 0.89 3.71 1.01c29.8,8.1 60.37,16.56 91.66,25.42l0.96 0.27 0.74 0.22 0.12 0.03c16.04,4.55 32.24,9.22 48.64,13.99l0.45 0.13 2.89 0.84c15.05,4.41 30.25,8.89 45.57,13.51l2.54 0.76 0.56 0.17c16.67,5.03 33.5,10.18 50.46,15.45l0.56 0.17 0.37 0.12 0.64 0.2c28.16,8.78 56.78,18.04 85.6,27.59z"/>
  <path class="fil13" d="M12565.77 26228.49l-4980.76 0c6.86,-4.56 13.65,-9.26 20.53,-13.77l0.6 -0.4 0.56 -0.35c17.71,-11.57 35.55,-22.76 53.44,-33.79l0.24 -0.14zm54.55 -32.56l0.05 -0.04c32.18,-18.65 64.62,-36.37 97.18,-53.5l4526.46 0c32.55,17.12 64.99,34.89 97.16,53.5l0.06 0.04zm53.72 32.05l1.96 1.21c17.31,10.62 34.52,21.51 51.64,32.64l2.87 1.87c6.62,4.33 13.15,8.85 19.74,13.24z"/>
  <path class="fil13" d="M12974.54 26585.14l-5798.3 0c40.98,-47.42 83.84,-92.27 128.41,-134.49l5541.47 0 4.69 4.33 1.96 1.86c15.65,14.93 31.06,30.23 46.3,45.79l0.15 0.15 0.6 0.62c15.31,15.64 30.36,31.64 45.16,47.96l0.24 0.25 0.52 0.59c9.75,10.77 19.25,21.89 28.8,32.94z"/>
  <path class="fil13" d="M13187.05 26890.39l-0.72 -1.31 0.26 0.47 0.15 0.26 0.15 0.28 0.16 0.3zm-35.83 -62.36l-0.14 -0.24 0.2 0.35 -0.06 -0.11zm-0.3 -0.49l0.05 0.08 -0.01 -0.03 -0.04 -0.05zm0.05 0.08l0.11 0.17zm-6138.47 -20.49c-4.24,6.82 -8.66,13.41 -12.83,20.32l-0.1 0.17zm-35.8 62.3c-9.24,16.99 -18.17,34.3 -26.98,51.76l4734.5 0c169.5,-45.45 339.15,-90.34 508.96,-134.55l-5167.75 0zm-48.73 82.79l0.15 -0.28 0.23 -0.41z"/>
  <path class="fil13" d="M13331.82 27236.48l0.01 0.05 0 -0.02 -0.01 -0.03zm-6489.24 -72.49c-8.27,23.77 -16.17,47.9 -23.64,72.49l-0.01 0.05 -0.04 0.11 -0.05 0.18c-6.13,20.19 -11.78,40.92 -17.35,61.69l3572.6 0c160.84,-45.05 321.81,-89.94 482.79,-134.52l-4014.3 0z"/>
  <path class="fil13" d="M6754.97 27520.65c-2.09,13.52 -4.45,26.8 -6.33,40.52l-0.04 0.23 -0.07 0.57c-4.17,30.52 -7.71,61.64 -10.74,93.22l2369.86 0c159.08,-44.77 318.03,-89.63 477.12,-134.54l-2829.8 0z"/>
  <path class="fil13" d="M13424.69 27932.64l0.01 -1.72 0 -0.01zm-6698.2 -53.56c-0.47,43.93 -0.03,88.67 1.6,134.5l1095.16 0c163.39,-44.47 326.48,-89.28 489.65,-134.5l-1586.41 0z"/>
  <polygon class="fil14" points="13313.58,28241.71 6960.85,28241.71 13313.58,28241.71 "/>
  <path class="fil15" d="M13406.43 28241.71l-6445.58 0c287.86,-74.86 575.37,-151.69 862.41,-229.86l5599.66 0c-2.64,74.12 -8.09,150.63 -16.49,229.86zm18.25 -364.36l-5111.77 0c265.05,-73.41 530,-147.64 794.74,-222.16l4305.41 0c6.87,71.26 10.82,145.28 11.62,222.16zm-28.46 -356.7l-3811.45 0c263.06,-74.19 526.11,-148.44 789.32,-222.14l2975.46 0c18.96,70.67 34.62,144.66 46.67,222.14zm-88.01 -356.66l-2451.33 0c271.24,-75.11 542.7,-149.31 814.52,-222.14l1542.73 0c35.28,69.75 66.81,143.74 94.08,222.14zm-169.69 -356.69l-958.16 0c269.35,-70.11 539.09,-138.5 809.46,-204.71 53.35,63.39 103.19,131.47 148.7,204.71z"/>
  <path class="fil16" d="M13214.13 26941.85l-1542.73 0c169.5,-45.45 339.15,-90.34 508.96,-134.55l958.16 0c26.75,43.01 51.99,87.88 75.61,134.55z"/>
  <path class="fil16" d="M13349.55 27298.51l-2975.46 0c160.84,-45.05 321.81,-89.94 482.79,-134.52l2451.33 0c15.13,43.42 28.94,88.27 41.34,134.52z"/>
  <path class="fil16" d="M13413.06 27655.19l-4305.41 0c159.08,-44.77 318.03,-89.63 477.12,-134.54l3811.45 0c6.78,43.73 12.4,88.58 16.84,134.54z"/>
  <path class="fil16" d="M13422.92 28011.85l-5599.66 0c163.39,-44.47 326.48,-89.28 489.65,-134.5l5111.77 0c0.44,43.9 -0.14,88.76 -1.76,134.5z"/>
  <path class="fil11" d="M8991.26 23037.24c-109.91,-341 -370.2,-262.06 -394.56,-253.83 -25.56,2.99 -294.59,42.93 -248.12,398.22 46.76,357.35 254.14,551.06 448.55,494.15 200.12,-31.72 304.71,-295.48 194.13,-638.54z"/>
  <path class="fil11" d="M11186.08 23037.24c109.92,-341 370.21,-262.06 394.58,-253.83 25.55,2.99 294.59,42.93 248.1,398.22 -46.75,357.35 -254.09,551.06 -448.53,494.15 -200.12,-31.72 -304.71,-295.48 -194.15,-638.54z"/>
  <path class="fil10" d="M8724.59 22520.66c136.22,-1495.02 1272.78,-1411.28 1379.96,-1400.02 107.2,-11.26 1243.75,-95 1379.96,1400.02 137,1503.9 -532.85,2486.06 -1379.96,2432.07 -847.11,53.99 -1516.96,-928.17 -1379.96,-2432.07z"/>
  <path class="fil11" d="M10300.54 23224.08c18.74,34.52 33.21,69.93 46.27,105.68 12.94,35.71 23.88,71.92 33.65,108.29 5.18,18.16 8.8,36.64 13.29,54.93 4.61,18.25 8.09,36.78 11.43,55.29 7.34,36.9 12.53,74.28 16.71,111.88l1.98 17.56 -9.54 8.75c-30.48,27.89 -61.8,55.02 -93.64,81.64 -32.38,26.12 -64.52,52.46 -99.32,76.26 22.57,-35.58 47.73,-68.66 72.66,-101.96 25.47,-32.76 51.42,-65.04 78.25,-96.53l-7.57 26.3c-11.3,-36.12 -21.54,-72.45 -29.65,-109.16 -4.39,-18.34 -8.66,-36.69 -11.78,-55.25 -3.25,-18.56 -7.34,-36.9 -9.94,-55.59 -5.67,-37.3 -10.16,-74.82 -12.71,-112.73 -2.42,-37.96 -3.38,-76.23 -0.09,-115.36z"/>
  <path class="fil7" d="M10683.98 24112.91c-270.58,263.03 -728.93,248.48 -1076.07,14.04l1076.07 -14.04z"/>
  <path class="fil3" d="M11176.37 22717.17c0,0 -11.83,-6.56 -32.55,-18.03 -10.08,-5.49 -22.29,-12.19 -36.28,-19.88 -13.73,-7.26 -29.21,-15.44 -46.14,-24.36 -17.46,-7.53 -34.93,-17.56 -54.45,-25.21 -9.46,-4.23 -19.17,-8.53 -29.12,-12.98 -9.98,-3.64 -20.23,-7.38 -30.65,-11.17 -20.23,-8.97 -42.31,-12.27 -63.33,-19.7 -21.79,-2.24 -43.2,-10.56 -64.97,-9.68l-32.42 -2.64c-10.65,1.27 -21.33,1.63 -32.01,2.21 -21.65,-0.89 -41.75,7.17 -62.64,9.71 -20.8,3.3 -39.5,13.38 -59.07,18.56l-14.47 4.49 -13.15 6.64c-8.93,4.18 -17.59,8.22 -25.91,12.1 -16.49,8.18 -33.42,14.11 -46.18,23 -13.1,8.22 -25.55,14.69 -35.8,20.28 -20.54,11.12 -33.69,16.93 -33.69,16.93 0,0 5.19,-12.49 16.81,-33.43 5.84,-10.38 12.88,-23.4 22.16,-37.48 8.18,-15.12 21.16,-28.93 35.89,-43.93 15.22,-14.34 28.94,-34.09 50.49,-46.58 21.03,-12.88 41.83,-30.26 67.96,-39.93 12.88,-5.24 26.34,-9.94 40.02,-14.74 13.42,-5.76 27.89,-8.23 42.7,-9.9 14.74,-2.02 29.65,-4.3 44.7,-5.71 14.95,0.18 30.03,1.27 45.08,2.11 30.52,0.62 58.71,10.73 87,17.59 13.59,4.89 26.55,10.78 39.45,16.41 13.06,5.27 25.33,11.34 36.55,18.82 11.38,7.08 22.73,13.68 33.38,20.81 9.93,7.92 19.71,15.61 29.21,23.13 19.21,14.47 33.77,32.29 48.37,46.84 27.36,31.19 46.23,59.91 57.35,81.29 11.57,21.1 15.71,34.43 15.71,34.43z"/>
  <path class="fil3" d="M9760.61 22717.17c0,0 -11.83,-6.56 -32.54,-18.03 -10.08,-5.49 -22.26,-12.19 -36.3,-19.88 -13.71,-7.26 -29.19,-15.44 -46.13,-24.36 -17.46,-7.53 -34.88,-17.56 -54.45,-25.21 -9.45,-4.23 -19.18,-8.53 -29.08,-12.98 -10.02,-3.64 -20.27,-7.38 -30.69,-11.17 -20.24,-8.97 -42.32,-12.27 -63.3,-19.7 -21.81,-2.24 -43.23,-10.56 -65.01,-9.68l-32.41 -2.64c-10.64,1.27 -21.33,1.63 -32.02,2.21 -21.63,-0.89 -41.74,7.17 -62.62,9.71 -20.81,3.3 -39.5,13.38 -59.07,18.56l-14.43 4.49 -13.2 6.64c-8.93,4.18 -17.59,8.22 -25.9,12.1 -16.49,8.18 -33.44,14.11 -46.19,23 -13.1,8.22 -25.55,14.69 -35.76,20.28 -20.58,11.12 -33.73,16.93 -33.73,16.93 0,0 5.23,-12.49 16.8,-33.43 5.85,-10.38 12.89,-23.4 22.17,-37.48 8.18,-15.12 21.16,-28.93 35.89,-43.93 15.21,-14.34 28.94,-34.09 50.5,-46.58 21.02,-12.88 41.83,-30.26 67.95,-39.93 12.89,-5.24 26.34,-9.94 40.02,-14.74 13.41,-5.76 27.92,-8.23 42.71,-9.9 14.74,-2.02 29.65,-4.3 44.68,-5.71 15,0.18 30.04,1.27 45.09,2.11 30.52,0.62 58.72,10.73 86.99,17.59 13.59,4.89 26.57,10.78 39.45,16.41 13.07,5.27 25.39,11.34 36.56,18.82 11.43,7.08 22.74,13.68 33.39,20.81 9.97,7.92 19.69,15.61 29.19,23.13 19.27,14.47 33.83,32.29 48.39,46.84 27.35,31.19 46.22,59.91 57.35,81.29 11.57,21.1 15.7,34.43 15.7,34.43z"/>
  <path class="fil3" d="M9715.7 23258.91c0,0 -3.08,-12.14 -9.99,-32.46 -6.89,-20.33 -17.63,-48.91 -34.38,-80.23 -16.98,-31.05 -40.68,-64.83 -73.72,-89.46 -16.32,-12.44 -35.01,-22.34 -55.28,-28.55 -9.99,-3.46 -20.19,-6.77 -31.23,-7.47 -10.78,-1.45 -21.42,-3.74 -32.77,-2.6 -10.47,0.4 -23.8,-0.96 -31.93,0.57 -11.44,2.21 -25.78,2.73 -34.62,6.25 -17.85,5.81 -38.21,12.63 -53.56,25.42 -16.41,11.26 -29.13,26.71 -40.56,42 -10.3,16.24 -19.09,32.78 -25.56,49.18 -12.75,32.77 -19.21,62.68 -23,83.74 -3.74,21.12 -4.84,33.61 -4.84,33.61 0,0 -3.34,-12.1 -5.58,-34 -2.02,-21.82 -3.34,-53.74 4.49,-91.92 3.77,-19.1 10.33,-39.58 20.58,-60.36 11.17,-20.04 24.67,-41.86 45.39,-58.27 19.44,-17.64 43.68,-30.66 71.83,-39.01 13.98,-4.75 24.54,-4.89 37.03,-7.6 16.01,-2.82 27.53,-1.41 41.56,-2.12 13.42,-0.79 26.92,2.03 40.37,4.27 13.56,1.45 26.52,5.76 39.33,10.55 13.19,3.65 24.89,10.47 36.28,17.5 11.92,6.13 21.6,15.09 31.45,23.23 38.53,34.22 59.95,76.88 71.92,113.17 12.26,36.64 15.74,68.26 17.01,90.11 1.1,22 -0.22,34.45 -0.22,34.45z"/>
  <path class="fil3" d="M10987.95 23238.37c0,0 -3.08,-12.15 -9.99,-32.46 -6.9,-20.28 -17.64,-48.91 -34.39,-80.23 -16.97,-31 -40.69,-64.83 -73.76,-89.41 -16.27,-12.45 -34.96,-22.35 -55.25,-28.55 -10.02,-3.52 -20.18,-6.81 -31.22,-7.52 -10.78,-1.45 -21.46,-3.69 -32.77,-2.6 -10.46,0.44 -23.79,-0.92 -31.93,0.62 -11.43,2.15 -25.77,2.73 -34.61,6.2 -17.86,5.8 -38.23,12.62 -53.57,25.43 -16.45,11.25 -29.12,26.69 -40.56,42 -10.29,16.23 -19.13,32.76 -25.55,49.17 -12.75,32.82 -19.22,62.68 -23,83.75 -3.74,21.1 -4.84,33.6 -4.84,33.6 0,0 -3.34,-12.06 -5.58,-33.95 -2.07,-21.82 -3.34,-53.8 4.47,-91.93 3.79,-19.08 10.3,-39.63 20.59,-60.35 11.18,-20.1 24.68,-41.87 45.39,-58.28 19.44,-17.67 43.67,-30.65 71.83,-39.01 13.94,-4.78 24.5,-4.92 37.03,-7.6 16.02,-2.82 27.54,-1.41 41.56,-2.16 13.38,-0.75 26.92,2.07 40.38,4.27 13.54,1.44 26.52,5.76 39.31,10.59 13.16,3.66 24.9,10.48 36.3,17.51 11.92,6.07 21.55,15.08 31.44,23.22 38.54,34.18 59.96,76.84 71.91,113.17 12.27,36.59 15.75,68.26 17.02,90.12 1.11,21.95 -0.21,34.4 -0.21,34.4z"/>
  <path class="fil3" d="M10148.59 21120.64c0,0 70.19,916.43 -1319.71,1300.3 0,0 39.71,463.32 -79.39,900.16 0,0 -450.08,-648.66 -238.29,-1416.37 211.81,-767.77 1284.87,-1382.83 1637.39,-784.09z"/>
  <path class="fil3" d="M10039.07 21120.64c0,0 -26.22,916.43 1363.67,1300.3 0,0 -66.19,582.42 52.97,1019.26 0,0 476.51,-767.76 264.72,-1535.47 -211.77,-767.77 -1328.84,-1382.83 -1681.36,-784.09z"/>
  <path class="fil9" d="M9038.9 22354.7c-202.81,-141.35 -383.31,-323.39 -504.26,-524.31 -8.67,24.59 -16.55,49.35 -23.44,74.34 -211.79,767.71 238.29,1416.37 238.29,1416.37 119.1,-436.84 79.39,-900.16 79.39,-900.16 74.37,-20.53 143.73,-42.87 210.02,-66.24z"/>
  <path class="fil17" d="M27075.68 940.03c-373.05,-203.47 -271.32,-1187.15 -271.32,-1187.15l-558.72 36.04 0 -35.9 -59.77 17.94 -59.77 -17.94 0 35.9 -558.72 -36.04c0,0 101.74,983.68 -271.33,1187.15 -373.05,203.51 -2577.51,305.23 -2340.09,2577.51l6459.83 0c237.42,-2272.28 -1967.04,-2374 -2340.11,-2577.51z"/>
  <path class="fil18" d="M25489.05 686.29c446.25,-66.5 892.24,-135.16 1337.92,-205.89 -62.68,-339.14 -22.61,-727.52 -22.61,-727.52l-558.72 36.04 0 -35.9 -59.77 17.94 -59.77 -17.94 0 35.9 -558.72 -36.04c0,0 58.9,571.57 -78.33,933.41z"/>
  <path class="fil12" d="M27434.01 1054.3c-303.7,270.93 -750.08,442.33 -1248.14,442.33 -498.06,0 -944.44,-171.4 -1248.13,-442.33 -734.13,197.57 -2176.14,603 -1981.78,2463.24l6459.83 0c194.35,-1860.24 -1247.67,-2265.67 -1981.78,-2463.24z"/>
  <path class="fil19" d="M22939.64 3131.29c-2.46,121.52 2.02,249.51 16.32,386.25l6459.83 0c84.35,-807.34 -139.69,-1340.42 -480.16,-1701.64 -2016.34,352.12 -4011.71,811.52 -5995.99,1315.39z"/>
  <path class="fil5" d="M24838.24 968.79l381.2 2551.04 -2433.74 0c0,0 -263.9,-2169.84 2052.54,-2551.04z"/>
  <path class="fil20" d="M24838.24 968.79l381.2 2551.04 -1026.29 -1612.72 410.53 -557.12 -527.79 -205.23c0,0 351.86,-161.28 762.35,-175.97z"/>
  <path class="fil5" d="M27512.08 968.79l-381.16 2551.04 2433.71 0c0,0 4.75,-39.54 7.38,-108.42l0 -183.21c-21.24,-604.91 -271.57,-1965.11 -2059.93,-2259.41z"/>
  <path class="fil20" d="M27512.08 968.79l-381.16 2551.04 1026.26 -1612.72 -410.5 -557.12 527.79 -205.23c0,0 -351.86,-161.28 -762.39,-175.97z"/>
  <path class="fil18" d="M25093.47 -1686.93c-109.9,-341 -370.2,-262.05 -394.56,-253.83 -25.56,3 -294.6,42.93 -248.11,398.23 46.76,357.36 254.13,551.05 448.54,494.14 200.11,-31.71 304.7,-295.47 194.13,-638.54z"/>
  <path class="fil18" d="M27288.3 -1686.93c109.92,-341 370.2,-262.05 394.56,-253.83 25.56,3 294.6,42.93 248.12,398.23 -46.75,357.36 -254.09,551.05 -448.55,494.14 -200.11,-31.71 -304.7,-295.47 -194.13,-638.54z"/>
  <path class="fil17" d="M24826.81 -2203.51c136.21,-1495.01 1272.76,-1411.27 1379.96,-1400 107.18,-11.27 1243.73,-95.01 1379.96,1400 137,1503.91 -532.85,2486.08 -1379.96,2432.07 -847.11,54.01 -1516.96,-928.16 -1379.96,-2432.07z"/>
  <path class="fil21" d="M26402.75 -2028.19c18.91,68.57 33.47,137.67 46.62,206.94 13.02,69.23 24.02,138.72 33.83,208.34 5.19,34.8 8.84,69.76 13.33,104.59 4.56,34.84 8.04,69.81 11.38,104.82 7.34,69.84 12.49,139.99 16.63,210.24l1.15 18.91 -13.64 8.4c-44.77,27.62 -90.22,54.22 -136.05,80.27 -46.21,25.46 -92.31,51.15 -140.43,73.84 38.54,-36.68 79.08,-70.41 119.5,-104.38 40.82,-33.33 82.04,-66.1 123.9,-97.89l-12.49 27.27c-11.35,-69.46 -21.64,-138.99 -29.74,-208.8 -4.43,-34.87 -8.66,-69.75 -11.78,-104.76 -3.25,-35.01 -7.39,-69.88 -9.9,-104.94 -5.67,-70.11 -10.16,-140.31 -12.58,-210.73 -2.33,-70.45 -3.2,-141.04 0.27,-212.12z"/>
  <path class="fil7" d="M26786.2 -743.29c-270.59,263.03 -691.81,245.83 -1038.97,11.45l1038.97 -11.45z"/>
  <path class="fil3" d="M27278.58 -2139.03c0,0 -52.52,-19.66 -131.29,-49.08 -19,-5.94 -37.87,-14.51 -58.72,-20.36 -10.38,-2.96 -20.36,-7.17 -30.87,-10.42 -10.78,-2.47 -21.2,-5.9 -31.89,-8.94 -21.11,-7.12 -43.24,-9.68 -64.48,-15.84 -21.73,-1.36 -43.06,-9.01 -64.43,-7.91l-31.81 -2.81c-10.46,1.22 -20.93,1.14 -31.44,1.45 -21.25,-1.45 -41.34,4.92 -62.33,6.24 -10.73,0 -20.44,3.69 -30.57,6.2 -10.11,2.42 -20.01,5.2 -30.17,7.17 -20.88,2.6 -38.44,12.85 -57.09,17.9 -18.16,6.16 -36.76,10.21 -51.24,17.68 -15.03,6.61 -29.37,11.57 -41.12,16.06 -23.71,8.8 -39.36,12.93 -39.36,12.93 0,0 4.13,-14.38 15.04,-38.13 5.55,-11.79 12.23,-26.53 21.33,-42.57 8.09,-17.04 21.94,-32.07 36.86,-49.54 15.88,-16.27 30.96,-37.38 54.05,-51.63 22.57,-14.47 45.09,-33.91 73.71,-44.38 14.04,-5.94 28.73,-11.08 43.69,-16.41 14.72,-6.33 30.56,-8.87 46.75,-10.94 16.1,-2.34 32.42,-5.02 48.86,-6.43 16.36,0.14 32.82,1.06 49.31,1.94 33.34,0.92 64.21,10.96 95,18.82 14.92,4.84 28.94,11.49 42.93,17.6 14.08,5.93 27.67,12.18 39.71,20.4 12.32,7.78 24.55,14.97 35.93,22.92 10.96,8.49 21.47,16.81 31.32,25.38 20.32,16.31 36.07,35.4 51.12,51.81 28.27,35.01 46.92,67.3 57.21,91.71 10.96,23.92 13.99,39.18 13.99,39.18z"/>
  <path class="fil3" d="M26001.4 -2168.01c0,0 -55.37,-15.96 -138.41,-39.99 -19.96,-4.61 -40.15,-11.74 -62.1,-16.18 -21.37,-6.02 -43.85,-10.34 -66.42,-15 -22.43,-5.36 -45.65,-6.73 -68.26,-11.17 -22.82,0 -45.65,-6.02 -67.99,-3.48l-33.6 -0.56c-10.86,1.97 -21.86,2.59 -32.86,3.64 -22.43,0.14 -43.06,7.71 -64.83,10.65 -11.17,0.83 -21.2,4.89 -31.49,8.23 -10.34,3.16 -20.45,6.64 -30.83,9.36 -21.42,4.09 -39.1,15.22 -57.98,21.73 -18.29,7.52 -37.29,12.58 -51.71,21.16 -15.05,7.6 -29.43,13.59 -41.22,18.91 -23.75,10.37 -39.5,15.57 -39.5,15.57 0,0 3.79,-14.87 14.04,-39.63 5.23,-12.27 11.56,-27.67 20.22,-44.51 7.62,-17.82 21.39,-33.6 35.86,-52.21 15.39,-17.55 30.3,-39.49 53.12,-55.23 10.78,-8.67 22.43,-16.9 34.27,-25.7 11.65,-9.23 24.49,-17.11 38.83,-23.13 28.33,-12.27 57.45,-28.37 90.39,-33.04 16.18,-3.34 32.59,-7.12 49.21,-9.62 16.63,-0.97 33.39,-1.19 50.15,-1.46 33.86,-1.4 66.06,6.25 97.94,11.92 15.66,3.53 30.45,9.29 45.17,14.3 14.79,4.97 29.25,9.99 42.28,17.37 26.95,12.8 51.54,27.23 72.96,43.28 22.21,14.83 40.24,32.68 57.09,48.12 32.32,33.03 54.49,64.22 67.47,88.09 13.54,23.37 18.2,38.58 18.2,38.58z"/>
  <path class="fil3" d="M25817.92 -1597.29c0,0 -3.08,-12.14 -9.99,-32.46 -6.91,-20.28 -17.64,-48.91 -34.4,-80.23 -16.98,-31.05 -40.68,-64.83 -73.72,-89.46 -16.3,-12.44 -35.01,-22.34 -55.28,-28.5 -9.98,-3.51 -20.18,-6.82 -31.23,-7.51 -10.77,-1.46 -21.42,-3.75 -32.76,-2.6 -10.48,0.39 -23.79,-0.97 -31.93,0.56 -11.44,2.21 -25.77,2.73 -34.61,6.25 -17.87,5.81 -38.23,12.63 -53.58,25.42 -16.4,11.27 -29.12,26.71 -40.55,42 -10.29,16.24 -19.09,32.78 -25.56,49.14 -12.76,32.81 -19.21,62.72 -23,83.78 -3.73,21.12 -4.84,33.61 -4.84,33.61 0,0 -3.34,-12.05 -5.59,-33.96 -2.05,-21.85 -3.34,-53.78 4.49,-91.96 3.79,-19.09 10.34,-39.58 20.59,-60.36 11.17,-20.04 24.67,-41.86 45.39,-58.27 19.44,-17.63 43.67,-30.61 71.83,-38.96 13.98,-4.8 24.49,-4.94 37.02,-7.65 16.01,-2.82 27.54,-1.41 41.57,-2.12 13.37,-0.79 26.96,2.03 40.37,4.27 13.55,1.45 26.57,5.76 39.32,10.55 13.21,3.65 24.9,10.51 36.3,17.5 11.92,6.13 21.54,15.09 31.44,23.27 38.52,34.18 59.94,76.85 71.91,113.13 12.27,36.64 15.75,68.31 17.02,90.16 1.1,21.95 -0.21,34.4 -0.21,34.4z"/>
  <path class="fil3" d="M27090.16 -1617.83c0,0 -3.08,-12.15 -9.99,-32.46 -6.91,-20.28 -17.63,-48.91 -34.4,-80.23 -16.97,-31.05 -40.68,-64.83 -73.76,-89.41 -16.27,-12.45 -34.96,-22.39 -55.23,-28.55 -9.98,-3.52 -20.2,-6.77 -31.23,-7.52 -10.78,-1.45 -21.47,-3.69 -32.76,-2.59 -10.48,0.43 -23.84,-0.93 -31.95,0.57 -11.43,2.19 -25.77,2.77 -34.61,6.25 -17.85,5.84 -38.22,12.61 -53.57,25.42 -16.44,11.25 -29.11,26.69 -40.54,42 -10.3,16.23 -19.09,32.81 -25.56,49.17 -12.76,32.82 -19.23,62.68 -23,83.75 -3.74,21.1 -4.84,33.6 -4.84,33.6 0,0 -3.34,-12.05 -5.59,-33.95 -2.07,-21.82 -3.34,-53.8 4.49,-91.93 3.78,-19.08 10.34,-39.63 20.59,-60.34 11.17,-20.11 24.67,-41.88 45.38,-58.28 19.45,-17.68 43.67,-30.66 71.82,-39.02 13.99,-4.75 24.5,-4.92 37.04,-7.6 16.01,-2.82 27.48,-1.41 41.56,-2.16 13.38,-0.75 26.92,2.07 40.33,4.27 13.59,1.49 26.57,5.76 39.37,10.59 13.16,3.66 24.89,10.48 36.28,17.51 11.92,6.07 21.56,15.08 31.45,23.22 38.53,34.18 59.95,76.84 71.91,113.17 12.28,36.59 15.75,68.26 17.03,90.12 1.1,21.99 -0.22,34.4 -0.22,34.4z"/>
  <path class="fil3" d="M25527.31 -746.49l703.73 0 733.02 14.65c0,0 -171.35,-309.33 -728.49,-280 -557.09,29.34 -605.64,162.69 -708.26,265.35z"/>
  <path class="fil3" d="M25336.7 -3180.23c0,0 571.77,733.06 1392.79,601.11l-190.57 -263.9c0,0 498.46,234.57 1334.12,14.65 0,0 58.64,-908.95 -1363.46,-1114.21 0,0 674.39,58.62 1143.56,337.21 0,0 -1378.11,-1436.79 -2507.02,0 0,0 -645.1,14.65 -674.38,733.01 -29.34,718.42 146.59,982.32 146.59,982.32 0,0 146.59,-117.3 190.58,131.95 43.98,249.2 0,630.4 161.28,982.26l263.9 -190.58c0,0 -337.22,-791.68 -263.9,-1451.43 0,0 425.18,-87.96 366.51,-762.39z"/>
  <path class="fil3" d="M27667.78 -2960.31c0,0 190.63,1612.71 -263.89,2257.81l-175.93 -219.92c0,0 498.49,-879.66 117.29,-1935.24l322.53 -102.65z"/>
  <g id="_2689625884576">
   <path class="fil0" d="M5150.03 5630.41c-373.05,-203.47 -271.33,-1187.15 -271.33,-1187.15l-558.7 36.04 0 -35.9 -59.77 17.94 -59.79 -17.94 0 35.9 -558.7 -36.04c0,0 101.73,983.68 -271.33,1187.15 -373.06,203.51 -2577.52,305.23 -2340.1,2577.51l6459.83 0c237.42,-2272.28 -1967.04,-2374 -2340.11,-2577.51z"/>
   <path class="fil1" d="M3563.4 5376.67c446.25,-66.5 892.24,-135.16 1337.92,-205.89 -62.69,-339.14 -22.62,-727.52 -22.62,-727.52l-558.7 36.04 0 -35.9 -59.77 17.94 -59.79 -17.94 0 35.9 -558.74 -36.04c0,0 58.93,571.57 -78.3,933.41z"/>
   <path class="fil22" d="M5266.11 5612.94c-186.27,-101.56 -254.89,-396.28 -276.83,-667.66 -163.96,61.98 -491.77,98.13 -702.22,98.13 -252.65,0 -572.35,-51.9 -752.99,-138.32 -18.34,281.84 -84.18,601.24 -279.69,707.85 -375.61,204.87 -2506.97,307.32 -2267.97,2594.98l6503.64 0c238.99,-2287.66 -1848.37,-2390.11 -2223.94,-2594.98z"/>
   <path class="fil23" d="M4257.23 6143.03c512.84,0 972.81,-170.49 1287.15,-440.32 -114.26,-32.42 -204.95,-60.03 -259.45,-89.77 -186.26,-101.56 -254.88,-396.28 -276.83,-667.66 -163.97,61.98 -491.77,98.13 -702.22,98.13 -252.64,0 -572.34,-51.9 -752.99,-138.32 -18.34,281.84 -84.18,601.24 -279.73,707.85 -59.28,32.37 -162.47,62.19 -293.1,98.43 314.04,264.87 769.78,431.66 1277.17,431.66z"/>
   <polygon class="fil5" points="1906.67,7966.45 2241.06,7650.66 2556.06,7965.62 2613.07,7908.62 2242.64,7538.19 1851.34,7907.83 "/>
   <polygon class="fil5" points="5985.88,7955.07 6371.34,7648.38 6688.59,7965.62 6745.59,7908.62 6377.46,7540.49 5935.65,7892 "/>
   <polygon class="fil5" points="5304.42,7956.43 5666.61,7649.22 5983.03,7965.62 6040.03,7908.62 5671.1,7539.65 5252.26,7894.94 "/>
   <polygon class="fil5" points="4648.28,7966.45 4982.63,7650.66 5297.64,7965.62 5354.64,7908.62 4984.27,7538.19 4592.91,7907.83 "/>
   <polygon class="fil5" points="3926.48,7960.78 4297.26,7647.9 4642.12,7957.84 4696,7897.84 4298.89,7540.97 3874.49,7899.17 "/>
   <polygon class="fil5" points="3277.52,7966.45 3611.88,7650.66 3926.88,7965.62 3983.88,7908.62 3613.46,7538.19 3222.14,7907.83 "/>
   <polygon class="fil5" points="2561.79,7960.61 2926.62,7648.07 3266.44,7953.52 3320.31,7893.53 2927.9,7540.8 2509.31,7899.39 "/>
   <polygon class="fil5" points="1894.09,7615.92 2241.42,7287.89 2569.01,7615.48 2600.1,7584.39 2242.29,7226.58 1863.92,7583.94 "/>
   <polygon class="fil5" points="5974.45,7603.56 6372.71,7286.66 6701.53,7615.48 6732.66,7584.39 6376.05,7227.81 5947.1,7569.11 "/>
   <polygon class="fil5" points="5292.54,7605.27 5667.62,7287.1 5995.99,7615.48 6027.1,7584.39 5670.04,7227.38 5264.09,7571.72 "/>
   <polygon class="fil5" points="4635.7,7615.92 4982.99,7287.89 5310.58,7615.48 5341.71,7584.39 4983.87,7226.58 4605.49,7583.94 "/>
   <polygon class="fil5" points="3914.65,7609.58 4297.6,7286.4 4654.35,7606.99 4683.77,7574.26 4298.53,7228.08 3886.29,7575.98 "/>
   <polygon class="fil5" points="3264.94,7615.92 3612.23,7287.89 3939.81,7615.48 3970.9,7584.39 3613.1,7226.58 3234.72,7583.94 "/>
   <polygon class="fil5" points="2549.87,7609.5 2926.89,7286.49 3278.66,7602.68 3308.08,7570 2927.6,7227.99 2521.23,7576.07 "/>
   <path class="fil23" d="M1988.95 7385.54c0,-466.35 -56.34,-893.3 -149.71,-1224.14 -527.89,342.59 -968.64,938.02 -852.83,2046.52l940.01 0c40.07,-248.9 62.53,-527.83 62.53,-822.38z"/>
   <path class="fil23" d="M6630.18 6143.34c-96.49,333.29 -154.98,767.22 -154.98,1242.2 0,294.55 22.46,573.48 62.53,822.38l952.32 0c117.87,-1128.46 -330.36,-1725 -859.87,-2064.58z"/>
   <path class="fil1" d="M3167.82 3003.45c-109.91,-341 -370.2,-262.05 -394.56,-253.83 -25.56,3 -294.59,42.93 -248.12,398.23 46.76,357.36 254.14,551.05 448.55,494.14 200.12,-31.71 304.71,-295.47 194.13,-638.54z"/>
   <path class="fil1" d="M5362.64 3003.45c109.92,-341 370.21,-262.05 394.58,-253.83 25.55,3 294.59,42.93 248.1,398.23 -46.75,357.36 -254.09,551.05 -448.53,494.14 -200.12,-31.71 -304.71,-295.47 -194.15,-638.54z"/>
   <path class="fil0" d="M2901.15 2486.87c136.22,-1495.01 1272.78,-1411.27 1379.96,-1400 107.2,-11.27 1243.75,-95.01 1379.96,1400 137,1503.91 -532.85,2486.08 -1379.96,2432.07 -847.11,54.01 -1516.96,-928.16 -1379.96,-2432.07z"/>
   <path class="fil19" d="M2846.62 1436.88c0,0 -307.89,197.92 -87.97,879.65l131.96 769.69 109.95 22c0,0 -43.99,-1165.54 329.86,-1429.45 373.87,-263.88 -483.8,-241.89 -483.8,-241.89z"/>
   <path class="fil12" d="M5199.69 1546.83c0,0 -1473.42,857.67 -2265.11,175.93 -791.69,-681.72 43.98,-1033.6 373.86,-989.61 0,0 -109.96,-373.85 329.87,-417.84 439.83,-43.98 351.86,395.85 1011.6,395.85 659.73,0 989.61,43.98 923.63,593.76 0,0 329.87,-197.92 439.83,175.93 109.96,373.85 -307.88,1605.37 -307.88,1605.37l-43.97 197.92 -109.97 0 0 -1055.57c0,0 -417.84,131.94 -351.86,-681.74z"/>
   <path class="fil19" d="M6013.37 1480.85c-109.96,-373.85 -439.83,-175.93 -439.83,-175.93 38.01,-316.58 -55.5,-465.29 -267.41,-534.6 -44.16,316.9 -146.02,623.01 -329.08,890.43 138.24,-65.01 222.64,-113.92 222.64,-113.92 -65.98,813.68 351.86,681.74 351.86,681.74l0 1055.57 109.97 0 43.97 -197.92c0,0 417.84,-1231.52 307.88,-1605.37z"/>
   <path class="fil1" d="M4477.1 2662.19c18.91,68.57 33.47,137.67 46.63,206.94 13.01,69.23 24.01,138.72 33.81,208.34 5.2,34.8 8.85,69.76 13.33,104.59 4.57,34.84 8.05,69.81 11.39,104.82 7.35,69.84 12.5,139.99 16.63,210.24l1.14 18.91 -13.63 8.4c-44.78,27.62 -90.21,54.22 -136.04,80.27 -46.22,25.46 -92.33,51.15 -140.44,73.84 38.53,-36.68 79.08,-70.41 119.5,-104.38 40.82,-33.33 82.03,-66.1 123.91,-97.89l-12.5 27.27c-11.34,-69.46 -21.64,-138.99 -29.73,-208.8 -4.4,-34.87 -8.67,-69.75 -11.78,-104.76 -3.26,-35.01 -7.4,-69.88 -9.9,-104.94 -5.68,-70.11 -10.16,-140.31 -12.58,-210.73 -2.33,-70.45 -3.22,-141.04 0.26,-212.12z"/>
   <path class="fil7" d="M4860.54 3947.09c-270.58,263.03 -728.93,248.47 -1076.07,14.08l1076.07 -14.08z"/>
   <path class="fil3" d="M5352.93 2551.35c0,0 -11.83,-6.55 -32.55,-18.03 -10.08,-5.49 -22.29,-12.19 -36.28,-19.88 -13.73,-7.26 -29.21,-15.44 -46.14,-24.36 -17.46,-7.48 -34.93,-17.56 -54.45,-25.21 -9.46,-4.22 -19.17,-8.53 -29.12,-12.97 -9.98,-3.65 -20.23,-7.39 -30.65,-11.18 -20.23,-8.97 -42.31,-12.27 -63.33,-19.7 -21.79,-2.24 -43.2,-10.56 -64.97,-9.67l-32.42 -2.65c-10.65,1.29 -21.33,1.64 -32.01,2.21 -21.65,-0.89 -41.75,7.17 -62.64,9.71 -20.8,3.3 -39.5,13.38 -59.07,18.57l-14.47 4.48 -13.15 6.65c-8.93,4.18 -17.59,8.21 -25.91,12.09 -16.49,8.18 -33.42,14.12 -46.18,23 -13.1,8.22 -25.55,14.69 -35.8,20.28 -20.54,11.13 -33.69,16.93 -33.69,16.93 0,0 5.19,-12.49 16.81,-33.43 5.84,-10.37 12.88,-23.4 22.16,-37.47 8.18,-15.13 21.16,-28.94 35.89,-43.94 15.22,-14.29 28.94,-34.09 50.49,-46.58 21.03,-12.84 41.83,-30.26 67.96,-39.93 12.88,-5.24 26.34,-9.94 40.02,-14.74 13.42,-5.76 27.89,-8.22 42.7,-9.9 14.74,-2.02 29.65,-4.3 44.7,-5.71 14.95,0.18 30.03,1.27 45.08,2.11 30.52,0.62 58.71,10.73 87,17.64 13.59,4.87 26.55,10.73 39.45,16.36 13.06,5.23 25.33,11.34 36.55,18.82 11.38,7.08 22.73,13.68 33.38,20.85 9.93,7.88 19.71,15.57 29.21,23.09 19.21,14.47 33.77,32.29 48.37,46.84 27.36,31.19 46.23,59.87 57.35,81.29 11.57,21.11 15.71,34.43 15.71,34.43z"/>
   <path class="fil3" d="M3937.17 2551.35c0,0 -11.83,-6.55 -32.54,-18.03 -10.08,-5.49 -22.26,-12.19 -36.3,-19.88 -13.71,-7.26 -29.19,-15.44 -46.13,-24.36 -17.46,-7.48 -34.88,-17.56 -54.45,-25.21 -9.45,-4.22 -19.18,-8.53 -29.08,-12.97 -10.02,-3.65 -20.27,-7.39 -30.69,-11.18 -20.24,-8.97 -42.32,-12.27 -63.3,-19.7 -21.81,-2.24 -43.23,-10.56 -65.01,-9.67l-32.41 -2.65c-10.64,1.29 -21.33,1.64 -32.02,2.21 -21.63,-0.89 -41.74,7.17 -62.62,9.71 -20.81,3.3 -39.5,13.38 -59.07,18.57l-14.43 4.48 -13.2 6.65c-8.93,4.18 -17.59,8.21 -25.9,12.09 -16.49,8.18 -33.44,14.12 -46.19,23 -13.1,8.22 -25.55,14.69 -35.76,20.28 -20.58,11.13 -33.73,16.93 -33.73,16.93 0,0 5.23,-12.49 16.8,-33.43 5.85,-10.37 12.89,-23.4 22.17,-37.47 8.18,-15.13 21.16,-28.94 35.89,-43.94 15.21,-14.29 28.94,-34.09 50.5,-46.58 21.02,-12.84 41.83,-30.26 67.95,-39.93 12.89,-5.24 26.34,-9.94 40.02,-14.74 13.41,-5.76 27.92,-8.22 42.71,-9.9 14.74,-2.02 29.65,-4.3 44.68,-5.71 15,0.18 30.04,1.27 45.09,2.11 30.52,0.62 58.72,10.73 86.99,17.64 13.59,4.87 26.57,10.73 39.45,16.36 13.07,5.23 25.39,11.34 36.56,18.82 11.43,7.08 22.74,13.68 33.39,20.85 9.97,7.88 19.69,15.57 29.19,23.09 19.27,14.47 33.83,32.29 48.39,46.84 27.35,31.19 46.22,59.87 57.35,81.29 11.57,21.11 15.7,34.43 15.7,34.43z"/>
   <path class="fil5" d="M2766.09 2734.05l390.56 300.63 988.25 30.96 9.81 -13.72 0.93 -1.28c5.27,-7.21 33.33,-43.67 73.79,-77.14 40.56,-33.82 92.72,-63.07 144.05,-62.72 27.58,0.14 55.77,7.52 86.38,28.28 30.53,20.8 63.29,55.64 96.01,110.66l9.15 15.43 1021.1 0 306.69 -287.51 -43.13 -46.04 -288.49 270.49 -978.22 0 0 31.53 27.1 -16.14c-36.12,-60.75 -74.47,-103.05 -114.67,-130.54 -40.07,-27.44 -82.21,-39.32 -121.92,-39.23 -79.74,0.43 -146.21,44.16 -193.39,84.93 -47.19,41.21 -75.83,81.41 -76.75,82.64l25.68 18.34 0.97 -31.53 -951 -29.82 -374.42 -288.18 -38.48 49.96z"/>
   <path class="fil6" d="M3138.36 3033.62c0,273.58 221.76,495.34 495.32,495.34 273.58,0 495.34,-221.76 495.34,-495.34 0,-273.57 -221.76,-495.33 -495.34,-495.33 -273.56,0 -495.32,221.76 -495.32,495.33z"/>
   <path class="fil5" d="M3138.36 3033.62l-31.54 0c0,290.99 235.88,526.83 526.86,526.87 291,-0.04 526.88,-235.88 526.88,-526.87 0,-291.03 -235.88,-526.86 -526.88,-526.86 -290.98,0 -526.86,235.83 -526.86,526.86l63.07 0c0,-128.2 51.85,-243.93 135.82,-327.98 84.05,-83.96 199.82,-135.81 327.97,-135.81 128.17,0 243.94,51.85 327.95,135.81 84.01,84.05 135.86,199.78 135.86,327.98 0,128.17 -51.85,243.93 -135.86,327.94 -84.01,83.96 -199.78,135.82 -327.95,135.85 -128.15,-0.03 -243.92,-51.89 -327.97,-135.85 -83.97,-84.01 -135.82,-199.77 -135.82,-327.94l-31.53 0z"/>
   <path class="fil6" d="M4582.97 3033.62c0,273.58 221.76,495.34 495.33,495.34 273.57,0 495.33,-221.76 495.33,-495.34 0,-273.57 -221.76,-495.33 -495.33,-495.33 -273.57,0 -495.33,221.76 -495.33,495.33z"/>
   <path class="fil5" d="M4582.97 3033.62l-31.54 0c0,290.99 235.89,526.83 526.87,526.87 290.99,-0.04 526.87,-235.88 526.87,-526.87 0,-291.03 -235.88,-526.86 -526.87,-526.86 -290.98,0 -526.87,235.83 -526.87,526.86l63.07 0c0,-128.2 51.86,-243.93 135.86,-327.98 84.01,-83.96 199.77,-135.81 327.94,-135.81 128.16,0 243.92,51.85 327.98,135.81 83.97,84.05 135.82,199.78 135.82,327.98 0,128.17 -51.85,243.93 -135.82,327.94 -84.06,83.96 -199.82,135.82 -327.98,135.85 -128.17,-0.03 -243.93,-51.89 -327.94,-135.85 -84,-84.01 -135.86,-199.77 -135.86,-327.94l-31.53 0z"/>
   <path class="fil3" d="M3892.26 3093.09c0,0 -3.08,-12.14 -9.99,-32.46 -6.89,-20.28 -17.63,-48.91 -34.38,-80.23 -16.98,-31.05 -40.68,-64.83 -73.72,-89.46 -16.32,-12.44 -35.01,-22.34 -55.28,-28.5 -9.99,-3.51 -20.19,-6.82 -31.23,-7.51 -10.78,-1.46 -21.42,-3.75 -32.77,-2.6 -10.47,0.39 -23.8,-0.97 -31.93,0.56 -11.44,2.21 -25.78,2.73 -34.62,6.25 -17.85,5.81 -38.21,12.63 -53.56,25.42 -16.41,11.27 -29.13,26.71 -40.56,42 -10.3,16.24 -19.09,32.78 -25.56,49.14 -12.75,32.81 -19.21,62.72 -23,83.78 -3.74,21.12 -4.84,33.61 -4.84,33.61 0,0 -3.34,-12.05 -5.58,-33.96 -2.02,-21.85 -3.34,-53.78 4.49,-91.96 3.77,-19.09 10.33,-39.58 20.58,-60.36 11.17,-20.04 24.67,-41.86 45.39,-58.27 19.44,-17.63 43.68,-30.61 71.83,-38.96 13.98,-4.8 24.54,-4.94 37.03,-7.65 16.01,-2.82 27.53,-1.41 41.56,-2.12 13.42,-0.79 26.92,2.03 40.37,4.27 13.56,1.45 26.52,5.76 39.33,10.55 13.19,3.65 24.89,10.51 36.28,17.5 11.92,6.13 21.6,15.09 31.45,23.27 38.53,34.18 59.95,76.85 71.92,113.13 12.26,36.64 15.74,68.31 17.01,90.16 1.1,21.95 -0.22,34.4 -0.22,34.4z"/>
   <path class="fil3" d="M5164.51 3072.55c0,0 -3.08,-12.15 -9.99,-32.46 -6.9,-20.28 -17.64,-48.91 -34.39,-80.23 -16.97,-31.05 -40.69,-64.83 -73.76,-89.41 -16.27,-12.45 -34.96,-22.39 -55.25,-28.55 -10.02,-3.52 -20.18,-6.77 -31.22,-7.52 -10.78,-1.45 -21.46,-3.69 -32.77,-2.59 -10.46,0.43 -23.79,-0.93 -31.93,0.57 -11.43,2.19 -25.77,2.77 -34.61,6.25 -17.86,5.84 -38.23,12.61 -53.57,25.42 -16.45,11.25 -29.12,26.69 -40.56,42 -10.29,16.23 -19.13,32.81 -25.55,49.17 -12.75,32.82 -19.22,62.68 -23,83.75 -3.74,21.1 -4.84,33.6 -4.84,33.6 0,0 -3.34,-12.05 -5.58,-33.95 -2.07,-21.82 -3.34,-53.8 4.47,-91.93 3.79,-19.08 10.3,-39.63 20.59,-60.34 11.18,-20.11 24.68,-41.88 45.39,-58.28 19.44,-17.68 43.67,-30.66 71.83,-39.02 13.94,-4.75 24.5,-4.92 37.03,-7.6 16.02,-2.82 27.54,-1.41 41.56,-2.16 13.38,-0.75 26.92,2.07 40.38,4.27 13.54,1.49 26.52,5.76 39.31,10.59 13.16,3.66 24.9,10.48 36.3,17.51 11.92,6.07 21.55,15.08 31.44,23.22 38.54,34.18 59.96,76.84 71.91,113.17 12.27,36.59 15.75,68.26 17.02,90.12 1.11,21.99 -0.21,34.4 -0.21,34.4z"/>
  </g>
 </g>
</svg>
