<?xml version="1.0" ?><svg fill="none" height="24" viewBox="0 0 24 24" width="24" xmlns="http://www.w3.org/2000/svg"><path clip-rule="evenodd" d="M2.5 8C2.5 6.61929 3.61929 5.5 5 5.5H14.5C15.8807 5.5 17 6.61929 17 8V9.23062L20.7969 7.54309C20.9516 7.47435 21.1305 7.48853 21.2725 7.58075C21.4144 7.67298 21.5 7.83075 21.5 8V16C21.5 16.1693 21.4144 16.327 21.2725 16.4192C21.1305 16.5115 20.9516 16.5256 20.7969 16.4569L17 14.7694V16C17 17.3807 15.8807 18.5 14.5 18.5H5C3.61929 18.5 2.5 17.3807 2.5 16V8ZM5 6.5C4.17157 6.5 3.5 7.17157 3.5 8V16C3.5 16.8284 4.17157 17.5 5 17.5H14.5C15.3284 17.5 16 16.8284 16 16V14.7694C16 14.0457 16.7449 13.5617 17.4061 13.8556L20.5 15.2306V8.76938L17.4061 10.1444C16.7449 10.4383 16 9.95428 16 9.23062V8C16 7.17157 15.3284 6.5 14.5 6.5H5Z" fill="black" fill-rule="evenodd"/><path clip-rule="evenodd" d="M9.5 15V9H10.5V15H9.5Z" fill="black" fill-rule="evenodd"/><path clip-rule="evenodd" d="M13 12.5H7V11.5H13V12.5Z" fill="black" fill-rule="evenodd"/></svg>