<?xml version="1.0" encoding="iso-8859-1"?>
<!-- Generator: Adobe Illustrator 18.1.1, SVG Export Plug-In . SVG Version: 6.00 Build 0)  -->
<svg version="1.1" id="Capa_1" xmlns="http://www.w3.org/2000/svg" xmlns:xlink="http://www.w3.org/1999/xlink" x="0px" y="0px"
	 viewBox="0 0 577.729 577.729" style="enable-background:new 0 0 577.729 577.729;" xml:space="preserve">
<g>
	<g>
		<path style="fill:#010002;" d="M544.681,196.452c4.895,3.264,7.344,8.16,7.344,14.688v347.616c0,5.305-1.836,9.793-5.508,13.465
			s-8.16,5.508-13.465,5.508H390.456c-5.307,0-9.791-1.836-13.465-5.508c-3.674-3.672-5.51-8.16-5.51-13.465V345.779H206.856
			v212.979c0,5.303-1.836,9.791-5.508,13.463s-8.16,5.508-13.464,5.508H44.676c-5.304,0-9.792-1.836-13.464-5.508
			s-5.508-8.16-5.508-13.463V211.14c0-6.12,2.448-11.016,7.344-14.688L272.952,4.284C276.216,1.428,280.092,0,284.58,0
			s8.567,1.428,12.239,4.284L544.681,196.452L544.681,196.452z"/>
	</g>
</g>
<g>
</g>
<g>
</g>
<g>
</g>
<g>
</g>
<g>
</g>
<g>
</g>
<g>
</g>
<g>
</g>
<g>
</g>
<g>
</g>
<g>
</g>
<g>
</g>
<g>
</g>
<g>
</g>
<g>
</g>
</svg>
