<?xml version="1.0" ?><svg fill="none" height="24" viewBox="0 0 24 24" width="24" xmlns="http://www.w3.org/2000/svg"><path clip-rule="evenodd" d="M5 3.5C5 2.67157 5.67157 2 6.5 2H20.5C21.3284 2 22 2.67157 22 3.5V17.5C22 18.3284 21.3284 19 20.5 19H6.5C5.67157 19 5 18.3284 5 17.5V3.5ZM6.5 3C6.22386 3 6 3.22386 6 3.5V17.5C6 17.7761 6.22386 18 6.5 18H20.5C20.7761 18 21 17.7761 21 17.5V3.5C21 3.22386 20.7761 3 20.5 3H6.5Z" fill="black" fill-rule="evenodd"/><path clip-rule="evenodd" d="M3.5 5V20C3.5 20.2761 3.72386 20.5 4 20.5H19V21.5H4C3.17157 21.5 2.5 20.8284 2.5 20V5H3.5Z" fill="black" fill-rule="evenodd"/><path clip-rule="evenodd" d="M10.7691 6.55651C10.9345 6.47041 11.134 6.48347 11.2867 6.59039L16.2867 10.0904C16.4204 10.1839 16.5 10.3368 16.5 10.5C16.5 10.6632 16.4204 10.8161 16.2867 10.9096L11.2867 14.4096C11.134 14.5165 10.9345 14.5296 10.7691 14.4435C10.6037 14.3574 10.5 14.1864 10.5 14V7C10.5 6.81356 10.6037 6.64261 10.7691 6.55651ZM11.5 7.96033V13.0397L15.1281 10.5L11.5 7.96033Z" fill="black" fill-rule="evenodd"/></svg>