<?xml version="1.0" encoding="utf-8"?>
<!-- Svg Vector Icons : http://www.onlinewebfonts.com/icon -->
<!DOCTYPE svg PUBLIC "-//W3C//DTD SVG 1.1//EN" "http://www.w3.org/Graphics/SVG/1.1/DTD/svg11.dtd">
<svg version="1.1" xmlns="http://www.w3.org/2000/svg" xmlns:xlink="http://www.w3.org/1999/xlink" x="0px" y="0px" viewBox="0 0 1000 1000" enable-background="new 0 0 1000 1000" xml:space="preserve">
<metadata> Svg Vector Icons : http://www.onlinewebfonts.com/icon </metadata>
<g><g transform="translate(0.000000,512.000000) scale(0.100000,-0.100000)"><path d="M4722.3,5014.3c-30.6-3.8-134.1-17.2-229.8-28.7c-597.5-72.8-1175.9-264.3-1361.7-450.1c-84.3-82.4-84.3-84.3-84.3-218.3c0-72.8-5.7-134.1-11.5-134.1c-5.7,0-90,38.3-185.8,86.2c-97.7,47.9-227.9,99.6-291.1,114.9c-143.6,36.4-371.5,36.4-507.5,0c-139.8-36.4-337.1-137.9-417.5-216.4l-67-61.3l11.5-273.9c63.2-1459.4,812.1-2719.6,2037.8-3432c185.8-107.3,201.1-120.7,306.4-277.7c137.9-201.1,304.5-371.6,463.5-469.2l122.6-76.6l-11.5-287.3c-19.2-448.1-107.3-892.5-210.7-1045.7c-40.2-59.4-55.6-67-189.6-88.1c-78.5-11.5-168.5-34.5-199.2-49.8c-122.6-63.2-199.2-199.2-199.2-348.6v-86.2H3420c-272,0-281.5-1.9-325.6-47.9l-47.9-46v-1131.9v-1131.9l47.9-46l46-47.9H5000h1859.7l46,47.9l47.9,46v1131.9v1131.9l-47.9,46c-44,46-53.6,47.9-325.6,47.9h-277.7v91.9c0,49.8-17.2,124.5-36.4,166.6c-65.1,141.7-170.4,206.8-381.1,229.8c-93.8,11.5-126.4,23-157.1,61.3C5609-1625.7,5498-1054.9,5498-585.7v166.6l118.7,74.7c155.1,93.8,325.6,270,463.5,471.1c101.5,151.3,120.7,166.6,298.8,272C7258,908.1,7899.6,1699.1,8208,2652.9c128.3,398.4,197.2,773.7,214.5,1179.8l11.5,273.9l-67,61.3c-36.4,34.5-120.6,91.9-189.6,126.4c-339,172.4-670.3,160.9-1051.4-36.4c-80.4-40.2-151.3-74.7-159-74.7s-13.4,59.4-13.4,134.1c0,118.8-5.7,139.8-55.6,195.4c-162.8,185.8-674.1,365.8-1313.8,465.4C5398.4,5006.7,4837.2,5031.6,4722.3,5014.3z M5618.6,4644.7c369.6-65.1,725.9-166.6,919.3-262.4l90-46v-226c0-783.3-136-1863.5-325.6-2598.9C6130,841.1,5921.2,394.9,5645.4,109.5C5505.6-38,5383-118.4,5227.9-166.3C4760.6-311.8,4312.4-15,3994.5,649.6c-339,706.7-578.4,1982.2-616.7,3269.2l-11.5,413.7l93.8,47.9c258.5,130.2,731.6,247.1,1252.5,308.4C4871.7,4707.9,5402.2,4681.1,5618.6,4644.7z M2634.7,4012.7c208.8-95.8,409.9-227.9,419.4-275.8c5.8-23,13.4-141.7,21.1-262.4c44-858,220.2-1861.6,440.5-2510.8l46-136l-51.7,34.5c-212.6,137.9-570.7,465.4-754.6,695.2c-381.1,473.1-651.2,1049.5-769.9,1649c-47.9,245.1-88.1,551.6-88.1,687.5c0,70.9,5.7,76.6,91.9,116.8c143.6,68.9,176.2,76.6,348.6,68.9C2473.9,4075.9,2523.7,4064.4,2634.7,4012.7z M7993.5,4022.3c105.3-51.7,109.2-55.5,109.2-128.3c0-136-38.3-442.4-88.1-681.8c-151.3-764.2-517.1-1440.2-1053.4-1959.2c-160.9-155.1-484.6-421.3-511.4-421.3c-5.7,0,24.9,103.4,65.1,229.8c139.8,436.7,247.1,944.2,323.7,1516.8c46,358.1,95.8,884.8,95.8,1036.1c0,61.3,7.7,126.4,19.2,145.6c28.7,53.6,371.5,250.9,526.7,302.6C7608.5,4104.6,7861.3,4085.5,7993.5,4022.3z M5172.4-687.2c0-308.3,67-748.8,149.4-990.2c113-327.5,250.9-463.5,496-484.5c147.5-11.5,159-19.2,159-101.5v-65.1H5000h-976.8v65.1c0,82.4,11.5,90,159,101.5c252.8,23,394.5,168.5,507.5,522.9c78.5,243.2,137.9,666.5,137.9,969.1v141.7H5000h172.4V-687.2z M6627.9-3554.3v-900.1H5000H3372.1v900.1v900.1H5000h1627.9V-3554.3z"/></g></g>
</svg>