<?xml version="1.0" encoding="utf-8"?>
<!-- Svg Vector Icons : http://www.onlinewebfonts.com/icon -->
<!DOCTYPE svg PUBLIC "-//W3C//DTD SVG 1.1//EN" "http://www.w3.org/Graphics/SVG/1.1/DTD/svg11.dtd">
<svg version="1.1" xmlns="http://www.w3.org/2000/svg" xmlns:xlink="http://www.w3.org/1999/xlink" x="0px" y="0px" viewBox="0 0 1000 1000" enable-background="new 0 0 1000 1000" xml:space="preserve">
<metadata> Svg Vector Icons : http://www.onlinewebfonts.com/icon </metadata>
<g><path d="M944,803c-296,0-592.1,0-888.1,0c-11.3-2.8-21.7-7-30.1-15.4c-8.6-8.5-13-19.1-15.8-30.5c0-171.3,0-342.7,0-514c2.8-11.3,7-21.7,15.4-30.2c8.5-8.6,19.1-13,30.5-15.8c296,0,592.1,0,888.1,0c11.3,2.8,21.7,7,30.1,15.4c8.6,8.5,13,19.1,15.8,30.5c0,171.3,0,342.7,0,514c-2.8,11.3-7,21.7-15.4,30.2C966,795.8,955.5,800.2,944,803L944,803z M498.9,762.7c133,0,266.1,0,399.1,0c28.2,0,47.4-19,47.4-47.1c0-140.5,0-281,0-421.6c0-3.9-0.2-7.9-1-11.7c-4.9-22.3-22.8-36.2-46.4-36.2c-266.1,0-532.2,0-798.2,0c-1.6,0-3.2,0-4.8,0.1c-25.2,1.3-44.7,21.7-44.7,46.8c0,141.4,0,282.8,0,424.2c0,3.5,0.3,7.2,1.1,10.6c5.4,21.2,24.3,34.9,47.9,34.9C232.5,762.7,365.7,762.7,498.9,762.7L498.9,762.7z M429.3,647.9c96.6-50.7,192.4-101,289.2-151.8c-97.1-50.6-192.9-100.6-289.2-150.8C429.3,446.6,429.3,546.8,429.3,647.9L429.3,647.9z"/></g>
</svg>