<?xml version="1.0" ?><svg fill="none" height="24" viewBox="0 0 24 24" width="24" xmlns="http://www.w3.org/2000/svg"><path clip-rule="evenodd" d="M5.25193 4.56588C5.40175 4.48027 5.58512 4.47796 5.73705 4.55976L12 7.93212L18.263 4.55976C18.4149 4.47796 18.5983 4.48027 18.7481 4.56588L22.2481 6.56588C22.4039 6.6549 22.5 6.82057 22.5 7V14.5C22.5 14.6968 22.3846 14.8752 22.2052 14.956L12.2052 19.456C12.0747 19.5147 11.9253 19.5147 11.7948 19.456L1.79482 14.956C1.61539 14.8752 1.5 14.6968 1.5 14.5V7C1.5 6.82057 1.59614 6.6549 1.75193 6.56588L5.25193 4.56588ZM5.50721 5.57176L2.5 7.29016V14.1767L12 18.4517L21.5 14.1767V7.29016L18.4928 5.57176L12.2371 8.94024C12.0891 9.01992 11.9109 9.01992 11.7629 8.94024L5.50721 5.57176Z" fill="black" fill-rule="evenodd"/><path clip-rule="evenodd" d="M9.5 12H4.5V11H9.5V12Z" fill="black" fill-rule="evenodd"/><path clip-rule="evenodd" d="M7.5 9V14H6.5V9H7.5Z" fill="black" fill-rule="evenodd"/><path clip-rule="evenodd" d="M17.5 13.5H15.5V12.5H17.5V13.5Z" fill="black" fill-rule="evenodd"/><path clip-rule="evenodd" d="M19.5 10.5H17.5V9.5H19.5V10.5Z" fill="black" fill-rule="evenodd"/></svg>