<?xml version="1.0" ?><svg fill="none" height="24" viewBox="0 0 24 24" width="24" xmlns="http://www.w3.org/2000/svg"><path clip-rule="evenodd" d="M12 10C10.8954 10 10 10.8954 10 12C10 13.1046 10.8954 14 12 14C13.1046 14 14 13.1046 14 12C14 10.8954 13.1046 10 12 10ZM9 12C9 10.3431 10.3431 9 12 9C13.6569 9 15 10.3431 15 12C15 13.6569 13.6569 15 12 15C10.3431 15 9 13.6569 9 12Z" fill="black" fill-rule="evenodd"/><path clip-rule="evenodd" d="M8.4694 8.34854C6.5102 10.3636 6.5102 13.6364 8.4694 15.6514L7.75242 16.3485C5.41586 13.9453 5.41586 10.0546 7.75242 7.65144L8.4694 8.34854ZM15.5306 15.6514C17.4898 13.6364 17.4898 10.3636 15.5306 8.34854L16.2476 7.65144C18.5841 10.0546 18.5841 13.9453 16.2476 16.3485L15.5306 15.6514Z" fill="black" fill-rule="evenodd"/><path clip-rule="evenodd" d="M6.34284 6.35385C3.21905 9.47223 3.21905 14.5278 6.34284 17.6461L5.63635 18.3539C2.12122 14.8448 2.12122 9.15517 5.63635 5.64613L6.34284 6.35385ZM17.6572 17.6461C20.7809 14.5278 20.7809 9.47223 17.6572 6.35385L18.3637 5.64613C21.8788 9.15517 21.8788 14.8448 18.3637 18.3539L17.6572 17.6461Z" fill="black" fill-rule="evenodd"/></svg>